<?xml version="1.0" encoding="UTF-8"?>
<svg version="1.1" xmlns="http://www.w3.org/2000/svg" width="236" height="78">
<path d="M0 0 C77.88 0 155.76 0 236 0 C236 25.74 236 51.48 236 78 C158.12 78 80.24 78 0 78 C0 52.26 0 26.52 0 0 Z " fill="#020102" transform="translate(0,0)"/>
<path d="M0 0 C0.41378906 0.495 0.82757813 0.99 1.25390625 1.5 C3.919638 3.79002459 7.09157958 4.28296149 10.4375 5.0625 C14.51376607 6.04127556 18.26597743 7.0514411 22 9 C24.66709069 9.16750414 24.66709069 9.16750414 27 9 C27.495 11.475 27.495 11.475 28 14 C22.72 14.33 17.44 14.66 12 15 C12.63753953 19.8946813 12.63753953 19.8946813 15.0625 23 C17.07198542 26.1114613 17.42322315 27.40260322 17 31 C18.19625 30.9175 19.3925 30.835 20.625 30.75 C25.1031224 30.75795404 27.62404397 31.95340553 31 35 C32.0625 37.4375 32.0625 37.4375 32 40 C30.37844371 43.48634601 29.23546708 44.84302194 26 47 C23.60815698 47.17307524 21.21016141 47.26680736 18.8125 47.3125 C13.19816011 47.53835657 9.36252195 48.30838058 4.83984375 51.72265625 C0.82142984 54.51251049 -4.13785031 56 -9 56 C-9 56.99 -9 57.98 -9 59 C-13.98438473 60.44962161 -18.97357571 60.1842396 -24.125 60.1875 C-25.12015625 60.19974609 -26.1153125 60.21199219 -27.140625 60.22460938 C-36.94236221 60.24380338 -46.11101729 59.37467287 -54.1875 53.375 C-57.81848867 48.61715278 -59.37519237 43.34668438 -58.875 37.375 C-57.93226322 31.67888516 -56.37807238 26.92904717 -51.9375 23.0625 C-49 21 -49 21 -47 21 C-46.97873047 20.1646875 -46.97873047 20.1646875 -46.95703125 19.3125 C-46.45971937 11.35550993 -43.50093309 6.08853852 -37.6875 0.6875 C-26.75705976 -8.03788397 -11.47035596 -7.6018161 0 0 Z " fill="#0A4784" transform="translate(65,12)"/>
<path d="M0 0 C0.66 -0.66 1.32 -1.32 2 -2 C6.33643601 -2.31537716 8.32653229 -2.44897847 12 0 C12.34057617 2.15478516 12.34057617 2.15478516 12.29296875 4.7890625 C12.28330078 5.73007813 12.27363281 6.67109375 12.26367188 7.640625 C12.23853516 8.62546875 12.21339844 9.6103125 12.1875 10.625 C12.16719727 12.11386719 12.16719727 12.11386719 12.14648438 13.6328125 C12.11106189 16.08877161 12.05725369 18.54445282 12 21 C15.3 21 18.6 21 22 21 C21.97679687 20.04738281 21.95359375 19.09476563 21.9296875 18.11328125 C21.91164063 16.85902344 21.89359375 15.60476562 21.875 14.3125 C21.85179687 13.07113281 21.82859375 11.82976563 21.8046875 10.55078125 C21.99176908 7.14963817 22.4322349 4.99448559 24 2 C27.89811061 -1.22986308 31.04775141 -1.29130874 36 -1 C36.495 0.485 36.495 0.485 37 2 C36.34 2 35.68 2 35 2 C34.67 3.65 34.34 5.3 34 7 C34.66 7 35.32 7 36 7 C37.00496852 10.01490557 37.10335303 12.04181692 37.0625 15.1875 C37.05347656 16.08855469 37.04445313 16.98960938 37.03515625 17.91796875 C37.02355469 18.60503906 37.01195312 19.29210937 37 20 C35.515 20.495 35.515 20.495 34 21 C33.34 21.66 32.68 22.32 32 23 C30.35 22.34 28.7 21.68 27 21 C27.495 24.96 27.495 24.96 28 29 C27.1850708 29.35360596 26.3701416 29.70721191 25.53051758 30.0715332 C22.67862105 31.79626456 22.67862105 31.79626456 22.43237305 35.09448242 C22.45855713 36.33560791 22.48474121 37.5767334 22.51171875 38.85546875 C22.51879349 39.51710526 22.52586823 40.17874176 22.53315735 40.86042786 C22.56111493 42.97060985 22.62384153 45.0781226 22.6875 47.1875 C22.71258176 48.61910225 22.73539517 50.05074617 22.75585938 51.48242188 C22.81094153 54.9891465 22.89721711 58.49431271 23 62 C20.36 62 17.72 62 15 62 C15 58.04 15 54.08 15 50 C13.02 50 11.04 50 9 50 C9.01160156 50.78246094 9.02320313 51.56492188 9.03515625 52.37109375 C9.04417969 53.38300781 9.05320312 54.39492188 9.0625 55.4375 C9.07410156 56.44683594 9.08570313 57.45617187 9.09765625 58.49609375 C9 61 9 61 8 62 C5.69 62 3.38 62 1 62 C0.67 51.44 0.34 40.88 0 30 C-1.98 30.66 -3.96 31.32 -6 32 C-4.515 32.495 -4.515 32.495 -3 33 C-1.19733731 36.41557141 -0.781066 39.16865501 -1 43 C-2.485 43.495 -2.485 43.495 -4 44 C-3.505 44.680625 -3.01 45.36125 -2.5 46.0625 C-0.64128923 49.70247525 -0.56656736 51.95462873 -1 56 C-2.3125 58.875 -2.3125 58.875 -4 61 C-9.51339749 62.83779916 -15.57365911 62.72790227 -21.125 61.0625 C-23.67810931 58.25407976 -23.81282856 55.86005209 -24.15234375 52.15625 C-24 50 -24 50 -22 47 C-22.33 46.67 -22.66 46.34 -23 46 C-24.32 48.97 -25.64 51.94 -27 55 C-27.66 55 -28.32 55 -29 55 C-29.2784375 55.8971875 -29.2784375 55.8971875 -29.5625 56.8125 C-31.64415854 59.98024126 -34.48146443 60.95887128 -38 62 C-41.00966257 62.37292549 -43.96721826 62.35195525 -46.99609375 62.29296875 C-47.82963882 62.28872391 -48.6631839 62.28447906 -49.52198792 62.28010559 C-52.16083311 62.26343314 -54.79888916 62.22580358 -57.4375 62.1875 C-59.23631703 62.17243833 -61.03514613 62.15875253 -62.83398438 62.14648438 C-67.22295615 62.11356728 -71.61134469 62.06186567 -76 62 C-76 61.01 -76 60.02 -76 59 C-74.83984375 58.65388672 -74.83984375 58.65388672 -73.65625 58.30078125 C-66.52689113 56.11026678 -66.52689113 56.11026678 -60.1875 52.3125 C-55.42383069 48.98900979 -49.97904182 49.43925004 -44.390625 49.43359375 C-40.96073786 49.27695768 -40.96073786 49.27695768 -38.59375 47.20703125 C-36.4459409 44.23273679 -36.27744958 41.6068446 -36 38 C-39.0469629 36.30566082 -41.82821466 35.50532888 -45.25 34.875 C-46.14203125 34.70742188 -47.0340625 34.53984375 -47.953125 34.3671875 C-48.96632813 34.18542969 -48.96632813 34.18542969 -50 34 C-50.18175781 33.39671875 -50.36351563 32.7934375 -50.55078125 32.171875 C-51.91400984 27.83750718 -53.21516132 24.62029029 -56 21 C-55.67 20.01 -55.34 19.02 -55 18 C-53.41773035 17.80372609 -51.83410729 17.61834462 -50.25 17.4375 C-49.36828125 17.33308594 -48.4865625 17.22867187 -47.578125 17.12109375 C-45.11567549 17.00543324 -43.33461936 17.26361305 -41 18 C-40.505 20.475 -40.505 20.475 -40 23 C-37.69 23.33 -35.38 23.66 -33 24 C-33 24.66 -33 25.32 -33 26 C-32.401875 26.0825 -31.80375 26.165 -31.1875 26.25 C-28.31153894 27.23604379 -27.57242297 28.42694423 -26 31 C-25.28837557 32.64797236 -24.60968047 34.31165408 -24 36 C-22.29115995 34.37660195 -20.62553283 32.70680947 -19 31 C-19 30.34 -19 29.68 -19 29 C-19.639375 28.7525 -20.27875 28.505 -20.9375 28.25 C-23 27 -23 27 -23.6171875 25.41796875 C-24.16325641 21.96881922 -24.18432538 18.54506322 -24.1875 15.0625 C-24.19974609 14.35931641 -24.21199219 13.65613281 -24.22460938 12.93164062 C-24.23613272 8.83317265 -23.82416742 5.68438558 -22 2 C-21.34 2 -20.68 2 -20 2 C-19.67 1.01 -19.34 0.02 -19 -1 C-12.99147576 -3.64375067 -5.92530963 -1.97510321 0 0 Z " fill="#0B4886" transform="translate(132,9)"/>
<path d="M0 0 C5.98993047 -0.3152595 9.63560356 0.31780178 15 3 C15.5259375 2.2575 15.5259375 2.2575 16.0625 1.5 C18.97290987 -0.75322054 21.42966966 -0.25966039 25 0 C25.66 0.33 26.32 0.66 27 1 C27.495 11.395 27.495 11.395 28 22 C28.66 22.33 29.32 22.66 30 23 C30.33 15.74 30.66 8.48 31 1 C35.05457883 -1.02728941 40.23109591 -0.22904102 44.6875 -0.25 C46.30301758 -0.2809375 46.30301758 -0.2809375 47.95117188 -0.3125 C54.09387288 -0.34262974 58.60972337 -0.03802185 64 3 C67.87942006 6.87942006 67.16138369 12.27673769 67.1875 17.5 C67.20167969 18.7890625 67.21585937 20.078125 67.23046875 21.40625 C67.00805575 24.87438485 66.74863283 27.017347 65 30 C60.54383948 33.55751133 56.52992159 33.42458481 51.0859375 33.36328125 C50.23448151 33.36377975 49.38302551 33.36427826 48.50576782 33.36479187 C46.71215471 33.36245807 44.91853791 33.35277058 43.125 33.33618164 C40.37730743 33.31251987 37.63058156 33.31563443 34.8828125 33.32226562 C33.13801504 33.31669071 31.39322167 33.30958201 29.6484375 33.30078125 C28.4155751 33.30214836 28.4155751 33.30214836 27.1578064 33.30354309 C23.26484197 33.25500092 21.31150134 33.20766756 18 31 C18 30.01 18 29.02 18 28 C17.34 28 16.68 28 16 28 C15.731875 28.639375 15.46375 29.27875 15.1875 29.9375 C14 32 14 32 11 33 C8.42734182 33.07029121 5.88358569 33.09370832 3.3125 33.0625 C2.61060547 33.05798828 1.90871094 33.05347656 1.18554688 33.04882812 C-0.54300538 33.03706927 -2.27151365 33.01913454 -4 33 C-3.979375 32.236875 -3.95875 31.47375 -3.9375 30.6875 C-3.87057159 27.89814214 -3.87057159 27.89814214 -5 25 C-4.67 24.34 -4.34 23.68 -4 23 C-2.824375 23.309375 -2.824375 23.309375 -1.625 23.625 C-0.325625 23.810625 -0.325625 23.810625 1 24 C1.66 23.34 2.32 22.68 3 22 C3.66 22 4.32 22 5 22 C5 17.71 5 13.42 5 9 C4.34 9 3.68 9 3 9 C2.67 8.01 2.34 7.02 2 6 C2.66 6 3.32 6 4 6 C4 5.34 4 4.68 4 4 C4.66 4 5.32 4 6 4 C5.67 3.34 5.34 2.68 5 2 C2.47266765 1.34444881 2.47266765 1.34444881 0 1 C0 0.67 0 0.34 0 0 Z " fill="#0B4785" transform="translate(163,7)"/>
<path d="M0 0 C0.89203125 0.10183594 1.7840625 0.20367188 2.703125 0.30859375 C3.37859375 0.39238281 4.0540625 0.47617187 4.75 0.5625 C5.245 3.0375 5.245 3.0375 5.75 5.5625 C8.06 5.8925 10.37 6.2225 12.75 6.5625 C12.75 7.2225 12.75 7.8825 12.75 8.5625 C13.348125 8.645 13.94625 8.7275 14.5625 8.8125 C17.43846106 9.79854379 18.17757703 10.98944423 19.75 13.5625 C20.46162443 15.21047236 21.14031953 16.87415408 21.75 18.5625 C22.183125 17.923125 22.61625 17.28375 23.0625 16.625 C24.75 14.5625 24.75 14.5625 27.75 13.5625 C32.96178241 13.1356302 38.01660958 13.13808052 42.75 15.5625 C44.73456791 18.90018239 44.96905594 21.72902105 44.75 25.5625 C43.265 26.0575 43.265 26.0575 41.75 26.5625 C42.245 27.243125 42.74 27.92375 43.25 28.625 C45.10871077 32.26497525 45.18343264 34.51712873 44.75 38.5625 C43.4375 41.4375 43.4375 41.4375 41.75 43.5625 C36.23660251 45.40029916 30.17634089 45.29040227 24.625 43.625 C22.07189069 40.81657976 21.93717144 38.42255209 21.59765625 34.71875 C21.75 32.5625 21.75 32.5625 23.75 29.5625 C23.42 29.2325 23.09 28.9025 22.75 28.5625 C21.43 31.5325 20.11 34.5025 18.75 37.5625 C18.09 37.5625 17.43 37.5625 16.75 37.5625 C16.4715625 38.4596875 16.4715625 38.4596875 16.1875 39.375 C14.10584146 42.54274126 11.26853557 43.52137128 7.75 44.5625 C4.74033743 44.93542549 1.78278174 44.91445525 -1.24609375 44.85546875 C-2.07963882 44.85122391 -2.9131839 44.84697906 -3.77198792 44.84260559 C-6.41083311 44.82593314 -9.04888916 44.78830358 -11.6875 44.75 C-13.48631703 44.73493833 -15.28514613 44.72125253 -17.08398438 44.70898438 C-21.47295615 44.67606728 -25.86134469 44.62436567 -30.25 44.5625 C-30.25 43.5725 -30.25 42.5825 -30.25 41.5625 C-29.08984375 41.21638672 -29.08984375 41.21638672 -27.90625 40.86328125 C-20.77689113 38.67276678 -20.77689113 38.67276678 -14.4375 34.875 C-9.67383069 31.55150979 -4.22904182 32.00175004 1.359375 31.99609375 C4.78926214 31.83945768 4.78926214 31.83945768 7.15625 29.76953125 C9.3040591 26.79523679 9.47255042 24.1693446 9.75 20.5625 C6.7030371 18.86816082 3.92178534 18.06782888 0.5 17.4375 C-0.39203125 17.26992188 -1.2840625 17.10234375 -2.203125 16.9296875 C-2.87859375 16.80851562 -3.5540625 16.68734375 -4.25 16.5625 C-4.43175781 15.95921875 -4.61351563 15.3559375 -4.80078125 14.734375 C-6.16400984 10.40000718 -7.46516132 7.18279029 -10.25 3.5625 C-9.92 2.5725 -9.59 1.5825 -9.25 0.5625 C-6.11637016 -0.72906365 -3.31158531 -0.39216142 0 0 Z " fill="#E99F14" transform="translate(86.25,26.4375)"/>
<path d="M0 0 C0.41378906 0.495 0.82757813 0.99 1.25390625 1.5 C3.919638 3.79002459 7.09157958 4.28296149 10.4375 5.0625 C14.51376607 6.04127556 18.26597743 7.0514411 22 9 C24.66709069 9.16750414 24.66709069 9.16750414 27 9 C27.495 11.475 27.495 11.475 28 14 C22.72 14.33 17.44 14.66 12 15 C12 15.99 12 16.98 12 18 C9.586238 18.69951063 7.16989766 19.38483919 4.75 20.0625 C4.06808594 20.26166016 3.38617188 20.46082031 2.68359375 20.66601562 C-3.71596219 22.43676654 -3.71596219 22.43676654 -7 21 C-8.75 19.5625 -8.75 19.5625 -10 18 C-10 17.34 -10 16.68 -10 16 C-10.99 16.33 -11.98 16.66 -13 17 C-13.99 16.67 -14.98 16.34 -16 16 C-16.495 17.485 -16.495 17.485 -17 19 C-18.36125 18.9690625 -18.36125 18.9690625 -19.75 18.9375 C-22.43791858 18.98919074 -24.49820306 19.07340854 -27 20 C-27.33 20.66 -27.66 21.32 -28 22 C-28.99 21.34 -29.98 20.68 -31 20 C-22.59753724 16.20273318 -13.94048515 14.08537371 -5 12 C-11.08972405 7.43949343 -15.58742477 7.01629364 -23 8 C-27.98255177 9.63462663 -30.57290207 12.40128814 -33 17 C-33.66 17 -34.32 17 -35 17 C-35 21.62 -35 26.24 -35 31 C-37.31 31 -39.62 31 -42 31 C-42.28875 31.598125 -42.5775 32.19625 -42.875 32.8125 C-44 35 -44 35 -46 38 C-45.74309434 41.85358487 -43.44365371 44.1622086 -41 47 C-41.66 47.66 -42.32 48.32 -43 49 C-43.33 48.67 -43.66 48.34 -44 48 C-44.33 48.66 -44.66 49.32 -45 50 C-45.66 50 -46.32 50 -47 50 C-46.67 51.98 -46.34 53.96 -46 56 C-45.01 56.33 -44.02 56.66 -43 57 C-46 58 -46 58 -48.9375 56.8125 C-54.43428122 53.55930295 -56.70680799 50.492098 -58.52734375 44.43359375 C-59.79290863 37.91750349 -58.20014875 31.73819776 -55 26 C-53.10518214 23.99878862 -51.2815481 22.60193803 -49 21 C-48.34 21 -47.68 21 -47 21 C-46.97873047 20.1646875 -46.97873047 20.1646875 -46.95703125 19.3125 C-46.45971937 11.35550993 -43.50093309 6.08853852 -37.6875 0.6875 C-26.75705976 -8.03788397 -11.47035596 -7.6018161 0 0 Z " fill="#0D4884" transform="translate(65,12)"/>
<path d="M0 0 C2.85128458 1.38970173 4.62395935 2.83996304 7 5 C4.24203505 6.47899916 1.66741175 7.44809426 -1.37109375 8.18359375 C-2.19287109 8.38919922 -3.01464844 8.59480469 -3.86132812 8.80664062 C-5.57419059 9.22609065 -7.28773317 9.64277336 -9.00195312 10.05664062 C-15.43156047 11.59238114 -15.43156047 11.59238114 -21 15 C-21.60169446 17.27331799 -21.60169446 17.27331799 -21.3125 19.6875 C-21.26738281 20.49574219 -21.22226562 21.30398437 -21.17578125 22.13671875 C-21.08876953 23.05904297 -21.08876953 23.05904297 -21 24 C-20.01 24.33 -19.02 24.66 -18 25 C-18 25.66 -18 26.32 -18 27 C-16.80761719 27.19335938 -15.61523438 27.38671875 -14.38671875 27.5859375 C-12.82024888 27.84857916 -11.25384605 28.11162088 -9.6875 28.375 C-8.90181641 28.50132813 -8.11613281 28.62765625 -7.30664062 28.7578125 C-6.54931641 28.88671875 -5.79199219 29.015625 -5.01171875 29.1484375 C-4.31522217 29.26364746 -3.61872559 29.37885742 -2.90112305 29.49755859 C-1 30 -1 30 2 32 C1.4375 33.8125 1.4375 33.8125 0 36 C-6.9889437 39.62887462 -13.84303288 40.22667836 -21.5625 40.375 C-22.6752832 40.43107422 -22.6752832 40.43107422 -23.81054688 40.48828125 C-27.97296652 40.55499857 -29.54481777 40.34903302 -32.96484375 37.7265625 C-35.90954626 33.78145242 -35.90954626 33.78145242 -36 31 C-35.25 29.078125 -35.25 29.078125 -34 27.25 C-33.4121875 26.32960938 -33.4121875 26.32960938 -32.8125 25.390625 C-31 24 -31 24 -24 24 C-24 19.38 -24 14.76 -24 10 C-23.34 10 -22.68 10 -22 10 C-21.835 9.278125 -21.67 8.55625 -21.5 7.8125 C-17.16622796 -0.31332257 -8.45925298 -1.50438151 0 0 Z " fill="#010208" transform="translate(54,19)"/>
<path d="M0 0 C2.08159482 2.13316586 2.9158309 3.44339786 3.36328125 6.40234375 C3.26762015 11.17804034 2.78026508 14.54933729 1 19 C1.75285597 21.59047977 1.75285597 21.59047977 3 24 C4.15789474 27.68421053 4.15789474 27.68421053 3 30 C0.69 30 -1.62 30 -4 30 C-5.98 26.37 -7.96 22.74 -10 19 C-10.33 22.63 -10.66 26.26 -11 30 C-13.64 30 -16.28 30 -19 30 C-19 20.1 -19 10.2 -19 0 C-5.66870043 -2.66625991 -5.66870043 -2.66625991 0 0 Z " fill="#EA9A04" transform="translate(225,41)"/>
<path d="M0 0 C0.87454834 0.00523682 1.74909668 0.01047363 2.65014648 0.01586914 C3.59438477 0.0190918 4.53862305 0.02231445 5.51147461 0.02563477 C6.50469727 0.03401367 7.49791992 0.04239258 8.52124023 0.05102539 C9.51833008 0.05553711 10.51541992 0.06004883 11.54272461 0.06469727 C14.01478872 0.07652532 16.48673541 0.0930069 18.95874023 0.11352539 C18.95874023 2.75352539 18.95874023 5.39352539 18.95874023 8.11352539 C14.66874023 8.11352539 10.37874023 8.11352539 5.95874023 8.11352539 C5.95874023 9.10352539 5.95874023 10.09352539 5.95874023 11.11352539 C7.25811523 11.09290039 8.55749023 11.07227539 9.89624023 11.05102539 C11.25039657 11.02953085 12.60630106 11.0420434 13.95874023 11.11352539 C14.95874023 12.11352539 14.95874023 12.11352539 15.02124023 15.67602539 C15.00061523 16.81040039 14.97999023 17.94477539 14.95874023 19.11352539 C11.98874023 19.11352539 9.01874023 19.11352539 5.95874023 19.11352539 C5.95874023 20.43352539 5.95874023 21.75352539 5.95874023 23.11352539 C10.24874023 23.11352539 14.53874023 23.11352539 18.95874023 23.11352539 C18.95874023 25.75352539 18.95874023 28.39352539 18.95874023 31.11352539 C15.66714707 31.17142892 12.3756842 31.207088 9.08374023 31.23852539 C7.67801758 31.26366211 7.67801758 31.26366211 6.24389648 31.28930664 C4.90004883 31.29897461 4.90004883 31.29897461 3.52905273 31.30883789 C2.70163574 31.31931152 1.87421875 31.32978516 1.02172852 31.34057617 C-1.04125977 31.11352539 -1.04125977 31.11352539 -3.04125977 29.11352539 C-3.28417969 26.33203125 -3.28417969 26.33203125 -3.27172852 22.82836914 C-3.26979492 21.57604492 -3.26786133 20.3237207 -3.26586914 19.03344727 C-3.25362305 17.71924805 -3.24137695 16.40504883 -3.22875977 15.05102539 C-3.22811523 13.73295898 -3.2274707 12.41489258 -3.22680664 11.05688477 C-3.17635735 0.17665425 -3.17635735 0.17665425 0 0 Z " fill="#F0A414" transform="translate(161.041259765625,39.886474609375)"/>
<path d="M0 0 C4.21878192 -0.19622241 7.17010894 0.19769832 11 2 C11.33 4.64 11.66 7.28 12 10 C11.01 10.33 10.02 10.66 9 11 C9.495 11.680625 9.99 12.36125 10.5 13.0625 C12.35871077 16.70247525 12.43343264 18.95462873 12 23 C10.6875 25.875 10.6875 25.875 9 28 C3.48660251 29.83779916 -2.57365911 29.72790227 -8.125 28.0625 C-10.67810931 25.25407976 -10.81282856 22.86005209 -11.15234375 19.15625 C-11 17 -11 17 -9 14 C-8.83300768 10.87478167 -8.83300768 10.87478167 -9 8 C-9.66 8 -10.32 8 -11 8 C-11 7.34 -11 6.68 -11 6 C-7.55549263 3.70366176 -5.06187717 3.45983515 -1 3 C-0.67 2.01 -0.34 1.02 0 0 Z " fill="#EBA11B" transform="translate(119,42)"/>
<path d="M0 0 C7.26 0 14.52 0 22 0 C22 2.64 22 5.28 22 8 C17.38 8 12.76 8 8 8 C8 8.99 8 9.98 8 11 C9.27875 10.979375 10.5575 10.95875 11.875 10.9375 C15.75 10.875 15.75 10.875 18 12 C18 14.31 18 16.62 18 19 C14.7 19 11.4 19 8 19 C8 20.32 8 21.64 8 23 C12.62 23 17.24 23 22 23 C22 25.64 22 28.28 22 31 C18.52085059 31.02887814 15.04173169 31.04675687 11.5625 31.0625 C10.07266602 31.07506836 10.07266602 31.07506836 8.55273438 31.08789062 C7.60849609 31.09111328 6.66425781 31.09433594 5.69140625 31.09765625 C4.37958374 31.10551147 4.37958374 31.10551147 3.04125977 31.11352539 C1 31 1 31 0 30 C-0.08783542 27.78144736 -0.10694609 25.56011504 -0.09765625 23.33984375 C-0.0962413 22.67537735 -0.09482635 22.01091095 -0.09336853 21.3263092 C-0.08775518 19.19666101 -0.07520054 17.06711661 -0.0625 14.9375 C-0.05748671 13.49674631 -0.05292351 12.05599097 -0.04882812 10.61523438 C-0.03863076 7.07675042 -0.0190583 3.53849187 0 0 Z " fill="#F0A312" transform="translate(182,40)"/>
<path d="M0 0 C2.64 0.33 5.28 0.66 8 1 C8 4.3 8 7.6 8 11 C9.98 11 11.96 11 14 11 C14 7.7 14 4.4 14 1 C19.75 -0.125 19.75 -0.125 22 1 C22 10.9 22 20.8 22 31 C19.36 31 16.72 31 14 31 C14 27.04 14 23.08 14 19 C12.02 19 10.04 19 8 19 C8.01160156 19.78246094 8.02320313 20.56492187 8.03515625 21.37109375 C8.04417969 22.38300781 8.05320313 23.39492188 8.0625 24.4375 C8.07410156 25.44683594 8.08570313 26.45617187 8.09765625 27.49609375 C8 30 8 30 7 31 C4.69 31 2.38 31 0 31 C0 20.77 0 10.54 0 0 Z " fill="#EA9E12" transform="translate(133,40)"/>
<path d="M0 0 C0.495 1.485 0.495 1.485 1 3 C0.34 3 -0.32 3 -1 3 C-1.33 4.65 -1.66 6.3 -2 8 C-1.34 8 -0.68 8 0 8 C1.00496852 11.01490557 1.10335303 13.04181692 1.0625 16.1875 C1.05347656 17.08855469 1.04445312 17.98960938 1.03515625 18.91796875 C1.02355469 19.60503906 1.01195312 20.29210937 1 21 C0.01 21.33 -0.98 21.66 -2 22 C-2.66 22.66 -3.32 23.32 -4 24 C-5.65 23.34 -7.3 22.68 -9 22 C-8.67 24.64 -8.34 27.28 -8 30 C-12.27846832 32.85231222 -15.895631 32.60225696 -21 33 C-21 36.3 -21 39.6 -21 43 C-22.98 43 -24.96 43 -27 43 C-27 39.7 -27 36.4 -27 33 C-28.65 32.67 -30.3 32.34 -32 32 C-32 31.34 -32 30.68 -32 30 C-26.06 30 -20.12 30 -14 30 C-14.33 28.68 -14.66 27.36 -15 26 C-15.07875824 23.01401996 -14.86228819 20.04347668 -14.6875 17.0625 C-14.65205078 16.26392578 -14.61660156 15.46535156 -14.58007812 14.64257812 C-14.34535346 10.41403079 -14.03424824 6.80695027 -12 3 C-8.10188939 -0.22986308 -4.95224859 -0.29130874 0 0 Z " fill="#0B4784" transform="translate(168,8)"/>
<path d="M0 0 C2.87465458 2.06615798 4.30475387 4.34973027 6 7.4375 C6.25 10.3125 6.25 10.3125 6 12.4375 C7.794375 12.31375 7.794375 12.31375 9.625 12.1875 C14.1031224 12.19545404 16.62404397 13.39090553 20 16.4375 C21.0625 18.875 21.0625 18.875 21 21.4375 C19.37844371 24.92384601 18.23546708 26.28052194 15 28.4375 C12.39754502 28.57971065 9.90882316 28.62552932 7.3125 28.5625 C6.61060547 28.55347656 5.90871094 28.54445313 5.18554688 28.53515625 C3.45688475 28.51163704 1.72839855 28.47576713 0 28.4375 C0.66 28.1075 1.32 27.7775 2 27.4375 C2.30640871 21.6157346 1.96608593 17.65372008 -1 12.4375 C-4.73931019 9.7046708 -8.24191061 8.76743851 -12.75 7.875 C-14.84684468 7.45892207 -16.93605846 6.99429779 -19 6.4375 C-19.33 5.7775 -19.66 5.1175 -20 4.4375 C-17.75023648 3.79084337 -15.50018033 3.14520477 -13.25 2.5 C-11.99703125 2.14035156 -10.7440625 1.78070313 -9.453125 1.41015625 C-8.31359375 1.08917969 -7.1740625 0.76820312 -6 0.4375 C-5.23171875 0.21835937 -4.4634375 -0.00078125 -3.671875 -0.2265625 C-2 -0.5625 -2 -0.5625 0 0 Z " fill="#050206" transform="translate(76,30.5625)"/>
<path d="M0 0 C0.66 -0.66 1.32 -1.32 2 -2 C5.625 -2.125 5.625 -2.125 9 -2 C7.3125 1 7.3125 1 5 4 C2.25 4.375 2.25 4.375 0 4 C0 3.34 0 2.68 0 2 C-0.99 2.33 -1.98 2.66 -3 3 C-1.68 3.99 -0.36 4.98 1 6 C0.67 6.66 0.34 7.32 0 8 C0.66 8.33 1.32 8.66 2 9 C1.34 9.66 0.68 10.32 0 11 C0 10.34 0 9.68 0 9 C-0.99 9.33 -1.98 9.66 -3 10 C-2.34 10.33 -1.68 10.66 -1 11 C0 12 0 12 0.0625 14.5625 C0.041875 15.366875 0.02125 16.17125 0 17 C-2.97 17 -5.94 17 -9 17 C-9.33 18.32 -9.66 19.64 -10 21 C-10.99 21 -11.98 21 -13 21 C-13 17.7 -13 14.4 -13 11 C-14.32 11 -15.64 11 -17 11 C-17.99 10.67 -18.98 10.34 -20 10 C-21.00449686 5.68066349 -21.33267768 2.88779613 -19 -1 C-13.28584386 -3.85707807 -5.73136276 -1.91045425 0 0 Z " fill="#0A4783" transform="translate(132,9)"/>
<path d="M0 0 C0.72445312 0.00064453 1.44890625 0.00128906 2.1953125 0.00195312 C5.38339447 0.02842244 7.95665629 0.1730521 11 1.1875 C11 1.8475 11 2.5075 11 3.1875 C10.34 3.1875 9.68 3.1875 9 3.1875 C9.185625 4.156875 9.37125 5.12625 9.5625 6.125 C9.706875 7.135625 9.85125 8.14625 10 9.1875 C9 10.1875 9 10.1875 5.94897461 10.30102539 C4.60008729 10.30086634 3.25119386 10.29517612 1.90234375 10.28515625 C0.83905602 10.28303383 0.83905602 10.28303383 -0.24571228 10.28086853 C-2.51801712 10.27525443 -4.79022475 10.26269963 -7.0625 10.25 C-8.59960796 10.24498681 -10.13671745 10.24042359 -11.67382812 10.23632812 C-15.44925642 10.22528042 -19.22461171 10.20800641 -23 10.1875 C-23 9.5275 -23 8.8675 -23 8.1875 C-21.84371094 8.00574219 -21.84371094 8.00574219 -20.6640625 7.8203125 C-19.66117188 7.65273437 -18.65828125 7.48515625 -17.625 7.3125 C-16.62726563 7.15007812 -15.62953125 6.98765625 -14.6015625 6.8203125 C-11.8574885 6.3916198 -11.8574885 6.3916198 -10 4.1875 C-10.33 3.5275 -10.66 2.8675 -11 2.1875 C-7.25573254 -0.30867831 -4.32624928 -0.07313055 0 0 Z " fill="#EC9A04" transform="translate(83,59.8125)"/>
<path d="M0 0 C0 9.9 0 19.8 0 30 C-2.64 30 -5.28 30 -8 30 C-8 26.04 -8 22.08 -8 18 C-6.68 17.67 -5.36 17.34 -4 17 C-4 14.30212925 -4.32396773 12.38987302 -5 9.8125 C-5.33 8.554375 -5.66 7.29625 -6 6 C-6.66 7.32 -7.32 8.64 -8 10 C-8 6.7 -8 3.4 -8 0 C-6 -1 -6 -1 0 0 Z " fill="#EB9A03" transform="translate(155,41)"/>
<path d="M0 0 C2.97 0 5.94 0 9 0 C11.46956522 10.18695652 11.46956522 10.18695652 11 15 C10.34 15.66 9.68 16.32 9 17 C7.125 16.6875 7.125 16.6875 5 16 C4.2575 15.814375 3.515 15.62875 2.75 15.4375 C2.1725 15.293125 1.595 15.14875 1 15 C0.9175 14.05125 0.835 13.1025 0.75 12.125 C0.36039986 8.91669817 0.36039986 8.91669817 -1.9375 7.75 C-2.618125 7.5025 -3.29875 7.255 -4 7 C-4.66 6.34 -5.32 5.68 -6 5 C-5.21625 4.855625 -4.4325 4.71125 -3.625 4.5625 C-1.03578982 4.12201075 -1.03578982 4.12201075 1 3 C0.67 2.01 0.34 1.02 0 0 Z " fill="#ED9C09" transform="translate(96,38)"/>
<path d="M0 0 C0.33 0 0.66 0 1 0 C1.02578125 0.78503906 1.0515625 1.57007812 1.078125 2.37890625 C1.37103396 9.53293377 1.37103396 9.53293377 4.125 16 C6 19 6 19 5.6171875 21.1875 C5.41351563 21.785625 5.20984375 22.38375 5 23 C3.37548581 23.33569297 1.75037083 23.6684796 0.125 24 C-0.77992188 24.185625 -1.68484375 24.37125 -2.6171875 24.5625 C-5 25 -5 25 -7 25 C-7 28.3 -7 31.6 -7 35 C-8.98 35 -10.96 35 -13 35 C-13 31.7 -13 28.4 -13 25 C-14.65 24.67 -16.3 24.34 -18 24 C-18 23.34 -18 22.68 -18 22 C-12.06 22 -6.12 22 0 22 C-0.33 20.68 -0.66 19.36 -1 18 C-1.02172852 15.89355469 -1.02172852 15.89355469 -0.87890625 13.671875 C-0.83056641 12.87265625 -0.78222656 12.0734375 -0.73242188 11.25 C-0.67634766 10.425 -0.62027344 9.6 -0.5625 8.75 C-0.51029297 7.90953125 -0.45808594 7.0690625 -0.40429688 6.203125 C-0.27504311 4.1350648 -0.13825726 2.0674778 0 0 Z " fill="#18417F" transform="translate(154,16)"/>
<path d="M0 0 C-0.99 0.495 -0.99 0.495 -2 1 C-2 1.66 -2 2.32 -2 3 C-2.66 3 -3.32 3 -4 3 C-3.34 3.66 -2.68 4.32 -2 5 C-1.875 8.125 -1.875 8.125 -2 11 C-2.66 10.34 -3.32 9.68 -4 9 C-7.5 8.58333333 -7.5 8.58333333 -11 9 C-11.99 10.485 -11.99 10.485 -13 12 C-13.66 12 -14.32 12 -15 12 C-15 17.94 -15 23.88 -15 30 C-13.02 30 -11.04 30 -9 30 C-9 26.37 -9 22.74 -9 19 C-8.67 19 -8.34 19 -8 19 C-8 22.96 -8 26.92 -8 31 C-10.64 31 -13.28 31 -16 31 C-16 21.1 -16 11.2 -16 1 C-4.75 -1.25 -4.75 -1.25 0 0 Z " fill="#F0AA26" transform="translate(222,40)"/>
<path d="M0 0 C1.875 0.3125 1.875 0.3125 4 1 C6.82679446 5.24019169 6.43169263 9.01954609 6 14 C5.33333333 15.66666667 4.66666667 17.33333333 4 19 C4.75285597 21.59047977 4.75285597 21.59047977 6 24 C7.15789474 27.68421053 7.15789474 27.68421053 6 30 C3.69 30 1.38 30 -1 30 C-3.31 25.71 -5.62 21.42 -8 17 C-6.02 17 -4.04 17 -2 17 C-1.34 16.01 -0.68 15.02 0 14 C0.66 14 1.32 14 2 14 C2.33 13.34 2.66 12.68 3 12 C3.66 12 4.32 12 5 12 C4.67 9.03 4.34 6.06 4 3 C2.68 2.67 1.36 2.34 0 2 C0 1.34 0 0.68 0 0 Z " fill="#E9A625" transform="translate(222,41)"/>
<path d="M0 0 C-0.99 0.495 -0.99 0.495 -2 1 C-2.33 1.99 -2.66 2.98 -3 4 C-6 3 -6 3 -7 2 C-7 2.99 -7 3.98 -7 5 C-5.68 5 -4.36 5 -3 5 C-2.67 5.99 -2.34 6.98 -2 8 C-2.99 8.495 -2.99 8.495 -4 9 C-4 8.34 -4 7.68 -4 7 C-10.7791194 9.24643894 -10.7791194 9.24643894 -16 14 C-16.33 12.68 -16.66 11.36 -17 10 C-17.66 10 -18.32 10 -19 10 C-19 8.02 -19 6.04 -19 4 C-19.66 4 -20.32 4 -21 4 C-21 3.34 -21 2.68 -21 2 C-17.42502309 -0.38331794 -15.31615977 -0.41523007 -11.0625 -0.6875 C-9.83660156 -0.77386719 -8.61070313 -0.86023437 -7.34765625 -0.94921875 C-4.58190031 -0.99117304 -2.59229708 -0.86409903 0 0 Z " fill="#ED9905" transform="translate(129,46)"/>
<path d="M0 0 C3 1 3 1 4 2 C5.15941038 5.47823115 4.70820884 7.45895578 4 11 C7.63 11 11.26 11 15 11 C15 12.65 15 14.3 15 16 C14 17 14 17 10.40234375 17.09765625 C8.91403133 17.0909822 7.42573568 17.07902183 5.9375 17.0625 C5.17888672 17.05798828 4.42027344 17.05347656 3.63867188 17.04882812 C1.75908129 17.0370068 -0.12046899 17.01907078 -2 17 C-2.14285714 9.34821429 -2.14285714 9.34821429 0 6 C-0.66 5.67 -1.32 5.34 -2 5 C-1.34 3.35 -0.68 1.7 0 0 Z " fill="#EE9B02" transform="translate(186,53)"/>
<path d="M0 0 C4.21878192 -0.19622241 7.17010894 0.19769832 11 2 C11.33 4.64 11.66 7.28 12 10 C11.01 10.33 10.02 10.66 9 11 C9.99 12.485 9.99 12.485 11 14 C11.07905064 16.33199388 11.08798769 18.66832622 11 21 C10.67 20.01 10.34 19.02 10 18 C9.1028125 18.680625 9.1028125 18.680625 8.1875 19.375 C6.49409348 20.63295913 4.75522914 21.82984724 3 23 C2.87625 21.865625 2.7525 20.73125 2.625 19.5625 C2.41875 18.386875 2.2125 17.21125 2 16 C1.34 15.67 0.68 15.34 0 15 C0.33 14.01 0.66 13.02 1 12 C5.875 11 5.875 11 7 11 C7 10.34 7 9.68 7 9 C5.02 9.33 3.04 9.66 1 10 C1.66 9.67 2.32 9.34 3 9 C3 8.01 3 7.02 3 6 C4.32 6.66 5.64 7.32 7 8 C7.33 6.68 7.66 5.36 8 4 C5.36 4 2.72 4 0 4 C0 2.68 0 1.36 0 0 Z " fill="#EE9C06" transform="translate(119,42)"/>
<path d="M0 0 C1.98 0 3.96 0 6 0 C4.02 0.99 4.02 0.99 2 2 C2.33 2.99 2.66 3.98 3 5 C2.67 5.66 2.34 6.32 2 7 C2.66 7 3.32 7 4 7 C4 7.66 4 8.32 4 9 C3.34 9 2.68 9 2 9 C2 9.66 2 10.32 2 11 C3.32 10.34 4.64 9.68 6 9 C5.77183594 9.61488281 5.54367188 10.22976562 5.30859375 10.86328125 C5.02113281 11.67152344 4.73367187 12.47976562 4.4375 13.3125 C4.14746094 14.11300781 3.85742188 14.91351563 3.55859375 15.73828125 C2.75084375 18.1433174 2.75084375 18.1433174 4 21 C3.54013374 24.06048927 2.74156518 26.99011782 2 30 C7.28 29.67 12.56 29.34 18 29 C18.33 27.35 18.66 25.7 19 24 C15.37 24 11.74 24 8 24 C8 23.67 8 23.34 8 23 C12.62 23 17.24 23 22 23 C22 25.64 22 28.28 22 31 C18.52085059 31.02887814 15.04173169 31.04675687 11.5625 31.0625 C10.07266602 31.07506836 10.07266602 31.07506836 8.55273438 31.08789062 C7.60849609 31.09111328 6.66425781 31.09433594 5.69140625 31.09765625 C4.37958374 31.10551147 4.37958374 31.10551147 3.04125977 31.11352539 C1 31 1 31 0 30 C-0.08783542 27.78144736 -0.10694609 25.56011504 -0.09765625 23.33984375 C-0.0962413 22.67537735 -0.09482635 22.01091095 -0.09336853 21.3263092 C-0.08775518 19.19666101 -0.07520054 17.06711661 -0.0625 14.9375 C-0.05748671 13.49674631 -0.05292351 12.05599097 -0.04882812 10.61523438 C-0.03778145 7.07678898 -0.02050792 3.53840461 0 0 Z " fill="#F1A512" transform="translate(182,40)"/>
<path d="M0 0 C0.99 0.33 1.98 0.66 3 1 C2.67 2.65 2.34 4.3 2 6 C2.66 4.68 3.32 3.36 4 2 C7.3 2 10.6 2 14 2 C14 2.33 14 2.66 14 3 C11.03 3 8.06 3 5 3 C5 4.32 5 5.64 5 7 C9.29 7 13.58 7 18 7 C18 9.64 18 12.28 18 15 C11.4 15 4.8 15 -2 15 C-2 14.67 -2 14.34 -2 14 C5.92 13.505 5.92 13.505 14 13 C14 12.34 14 11.68 14 11 C8.72 10.67 3.44 10.34 -2 10 C-2 9.01 -2 8.02 -2 7 C-1.34 7 -0.68 7 0 7 C0 4.69 0 2.38 0 0 Z " fill="#E7A632" transform="translate(162,56)"/>
<path d="M0 0 C0.33 0.33 0.66 0.66 1 1 C3.33297433 1.04092937 5.66705225 1.04241723 8 1 C8 2.98 8 4.96 8 7 C6.22925083 7.02705729 4.45838289 7.04642195 2.6875 7.0625 C1.70136719 7.07410156 0.71523437 7.08570313 -0.30078125 7.09765625 C-3 7 -3 7 -6 6 C-6.33 7.32 -6.66 8.64 -7 10 C-8.32 10.33 -9.64 10.66 -11 11 C-11 10.34 -11 9.68 -11 9 C-10.34 9 -9.68 9 -9 9 C-9 8.34 -9 7.68 -9 7 C-9.66 7 -10.32 7 -11 7 C-11.33 5.02 -11.66 3.04 -12 1 C-7.94726192 0.01751804 -4.16464926 -0.16017882 0 0 Z " fill="#EA9B05" transform="translate(195,40)"/>
<path d="M0 0 C2.64 0.33 5.28 0.66 8 1 C8 4.3 8 7.6 8 11 C9.98 11 11.96 11 14 11 C14 11.99 14 12.98 14 14 C8.375 14.25 8.375 14.25 5 12 C5 10.68 5 9.36 5 8 C3.68 8 2.36 8 1 8 C1 15.26 1 22.52 1 30 C2.98 30 4.96 30 7 30 C7 30.33 7 30.66 7 31 C4.69 31 2.38 31 0 31 C0 20.77 0 10.54 0 0 Z " fill="#E2AC4D" transform="translate(133,40)"/>
<path d="M0 0 C0 10.56 0 21.12 0 32 C2.31 32 4.62 32 7 32 C7 32.33 7 32.66 7 33 C4.36 33 1.72 33 -1 33 C-2.86563834 29.84444765 -3.17935143 27.69997111 -3 24.0625 C-2.9092565 20.22291571 -3.15368216 17.46184595 -5 14 C-4.34 13.67 -3.68 13.34 -3 13 C-3.33 9.7 -3.66 6.4 -4 3 C-6.97 2.505 -6.97 2.505 -10 2 C-10 1.67 -10 1.34 -10 1 C-8.71073008 0.63720544 -7.41846728 0.28503302 -6.125 -0.0625 C-5.40570313 -0.25972656 -4.68640625 -0.45695312 -3.9453125 -0.66015625 C-2 -1 -2 -1 0 0 Z " fill="#1D0102" transform="translate(133,39)"/>
<path d="M0 0 C0.33 0 0.66 0 1 0 C1.04898438 0.71027344 1.09796875 1.42054687 1.1484375 2.15234375 C1.22320312 3.07144531 1.29796875 3.99054687 1.375 4.9375 C1.44460937 5.85402344 1.51421875 6.77054688 1.5859375 7.71484375 C1.72257813 8.46894531 1.85921875 9.22304688 2 10 C2.66 10.33 3.32 10.66 4 11 C3.01 12.485 3.01 12.485 2 14 C-0.97 13.67 -3.94 13.34 -7 13 C-7 12.01 -7 11.02 -7 10 C-9.33075929 10.95865509 -9.33075929 10.95865509 -11 14 C-11.66 13.67 -12.32 13.34 -13 13 C-12.979375 12.05125 -12.95875 11.1025 -12.9375 10.125 C-12.77448174 7.09333717 -12.77448174 7.09333717 -14 5 C-13.34 5 -12.68 5 -12 5 C-11.67 4.34 -11.34 3.68 -11 3 C-11 4.32 -11 5.64 -11 7 C-8.33829573 7.7393623 -6.51314341 8.13195116 -3.8125 7.4375 C-1.22538427 5.38564959 -0.81556266 3.12632355 0 0 Z " fill="#EF9A05" transform="translate(149,45)"/>
<path d="M0 0 C5.15171623 -0.09038099 9.91913204 0.15318867 15 1 C15 2.98 15 4.96 15 7 C12.70890403 7.08075665 10.41700733 7.13907731 8.125 7.1875 C6.21074219 7.23970703 6.21074219 7.23970703 4.2578125 7.29296875 C3.18273437 7.19628906 2.10765625 7.09960938 1 7 C-1 4 -1 4 -0.625 1.8125 C-0.41875 1.214375 -0.2125 0.61625 0 0 Z " fill="#E39805" transform="translate(164,40)"/>
<path d="M0 0 C5.98993047 -0.3152595 9.63560356 0.31780178 15 3 C15.33 2.34 15.66 1.68 16 1 C16.66 1.33 17.32 1.66 18 2 C17.67 2.99 17.34 3.98 17 5 C16.113125 4.773125 15.22625 4.54625 14.3125 4.3125 C10.42209376 3.94548054 9.08559304 4.73118159 6 7 C6.33 7.804375 6.66 8.60875 7 9.4375 C8.18669642 13.66510599 8.56571944 17.63231317 8 22 C7.34 22.99 6.68 23.98 6 25 C4.68 24.67 3.36 24.34 2 24 C2.33 23.34 2.66 22.68 3 22 C3.66 22 4.32 22 5 22 C5 17.71 5 13.42 5 9 C4.34 9 3.68 9 3 9 C2.67 8.01 2.34 7.02 2 6 C2.66 6 3.32 6 4 6 C4 5.34 4 4.68 4 4 C4.66 4 5.32 4 6 4 C5.67 3.34 5.34 2.68 5 2 C2.47266765 1.34444881 2.47266765 1.34444881 0 1 C0 0.67 0 0.34 0 0 Z " fill="#144780" transform="translate(163,7)"/>
<path d="M0 0 C0.33 1.32 0.66 2.64 1 4 C-0.65 4 -2.3 4 -4 4 C-4 4.66 -4 5.32 -4 6 C-3.01 6 -2.02 6 -1 6 C-1.33 6.99 -1.66 7.98 -2 9 C-4.33333333 9 -6.66666667 9 -9 9 C-9.33 10.65 -9.66 12.3 -10 14 C-10.33 14 -10.66 14 -11 14 C-11.61593211 5.03476595 -11.61593211 5.03476595 -9.4375 1.375 C-6.17757904 -0.46392977 -3.67887806 -0.28299062 0 0 Z " fill="#C5820C" transform="translate(218,48)"/>
<path d="M0 0 C0.99 0.66 1.98 1.32 3 2 C0.54908957 4.68433048 -1.28241384 5.91789741 -5.04296875 6.09765625 C-5.75066406 6.08605469 -6.45835938 6.07445313 -7.1875 6.0625 C-9.0746875 6.0315625 -9.0746875 6.0315625 -11 6 C-11 6.66 -11 7.32 -11 8 C0.22 8 11.44 8 23 8 C23 8.33 23 8.66 23 9 C10.46 9 -2.08 9 -15 9 C-15 8.01 -15 7.02 -15 6 C-14.16855469 5.73445313 -13.33710937 5.46890625 -12.48046875 5.1953125 C-11.39378906 4.84210938 -10.30710937 4.48890625 -9.1875 4.125 C-8.10855469 3.77695313 -7.02960937 3.42890625 -5.91796875 3.0703125 C-2.86684198 2.08040347 -2.86684198 2.08040347 0 0 Z " fill="#E0B457" transform="translate(71,62)"/>
<path d="M0 0 C0 9.9 0 19.8 0 30 C-2.64 30 -5.28 30 -8 30 C-8 26.04 -8 22.08 -8 18 C-7.67 18 -7.34 18 -7 18 C-7 21.63 -7 25.26 -7 29 C-5.02 29 -3.04 29 -1 29 C-1.10999608 25.24940197 -1.24059869 21.49979656 -1.375 17.75 C-1.4059375 16.68652344 -1.436875 15.62304688 -1.46875 14.52734375 C-1.50742188 13.50253906 -1.54609375 12.47773437 -1.5859375 11.421875 C-1.6173584 10.47924805 -1.6487793 9.53662109 -1.68115234 8.56542969 C-2.0129153 5.89608427 -2.49936785 4.22666309 -4 2 C-4.99 1.67 -5.98 1.34 -7 1 C-7 3.97 -7 6.94 -7 10 C-7.33 10 -7.66 10 -8 10 C-8 6.7 -8 3.4 -8 0 C-6 -1 -6 -1 0 0 Z " fill="#DDB062" transform="translate(155,41)"/>
<path d="M0 0 C2.38564077 0.57584432 4.66682784 1.22227595 7 2 C8.66621616 2.03874921 10.33394172 2.0450286 12 2 C12.33 3.65 12.66 5.3 13 7 C5.08 7.495 5.08 7.495 -3 8 C-3.33 8.99 -3.66 9.98 -4 11 C-4 9.68 -4 8.36 -4 7 C-2.68 7 -1.36 7 0 7 C0 5.68 0 4.36 0 3 C0.66 3 1.32 3 2 3 C2 2.34 2 1.68 2 1 C1.34 0.67 0.68 0.34 0 0 Z " fill="#19416C" transform="translate(80,19)"/>
<path d="M0 0 C0.99 0.33 1.98 0.66 3 1 C3.33 1.99 3.66 2.98 4 4 C6.64 4 9.28 4 12 4 C12 5.32 12 6.64 12 8 C9.03 8 6.06 8 3 8 C2.67 9.32 2.34 10.64 2 12 C1.01 12 0.02 12 -1 12 C-1.02698189 10.37509046 -1.04638757 8.75005367 -1.0625 7.125 C-1.07410156 6.22007813 -1.08570312 5.31515625 -1.09765625 4.3828125 C-1 2 -1 2 0 0 Z " fill="#020413" transform="translate(120,18)"/>
<path d="M0 0 C5.61 0 11.22 0 17 0 C17.33 1.32 17.66 2.64 18 4 C12.39 4 6.78 4 1 4 C0.67 2.68 0.34 1.36 0 0 Z " fill="#ED9902" transform="translate(159,66)"/>
<path d="M0 0 C2.4375 0.8125 2.4375 0.8125 5 2 C5.33 2.99 5.66 3.98 6 5 C5.01 5.33 4.02 5.66 3 6 C4.98 6.66 6.96 7.32 9 8 C9 8.33 9 8.66 9 9 C6.36 9 3.72 9 1 9 C0.67 9.66 0.34 10.32 0 11 C-1.65 10.01 -3.3 9.02 -5 8 C-4.67 6.02 -4.34 4.04 -4 2 C-2.68 2.66 -1.36 3.32 0 4 C0 2.68 0 1.36 0 0 Z " fill="#BD7804" transform="translate(115,58)"/>
<path d="M0 0 C2 1 2 1 3 3 C4.32 3 5.64 3 7 3 C7 5.31 7 7.62 7 10 C6.67 9.01 6.34 8.02 6 7 C5.401875 7.45375 4.80375 7.9075 4.1875 8.375 C2.49409348 9.63295913 0.75522914 10.82984724 -1 12 C-1.12375 10.865625 -1.2475 9.73125 -1.375 8.5625 C-1.58125 7.386875 -1.7875 6.21125 -2 5 C-2.66 4.67 -3.32 4.34 -4 4 C-3.67 3.01 -3.34 2.02 -3 1 C-2.01 0.67 -1.02 0.34 0 0 Z " fill="#ED9A03" transform="translate(123,53)"/>
<path d="M0 0 C2.97 0 5.94 0 9 0 C9 0.99 9 1.98 9 3 C9.33 3.66 9.66 4.32 10 5 C9.05125 5.268125 8.1025 5.53625 7.125 5.8125 C3.74732727 6.74986588 3.74732727 6.74986588 2 10 C1.34 10 0.68 10 0 10 C0 6.7 0 3.4 0 0 Z " fill="#EB9B04" transform="translate(207,42)"/>
<path d="M0 0 C1.98 0 3.96 0 6 0 C6 3.3 6 6.6 6 10 C4.02 10 2.04 10 0 10 C0 6.7 0 3.4 0 0 Z " fill="#110206" transform="translate(141,41)"/>
<path d="M0 0 C-0.99 0.495 -0.99 0.495 -2 1 C-2.33 1.99 -2.66 2.98 -3 4 C-6 3 -6 3 -7 2 C-7 2.99 -7 3.98 -7 5 C-8.98 5.33 -10.96 5.66 -13 6 C-12.67 5.01 -12.34 4.02 -12 3 C-13.32 3 -14.64 3 -16 3 C-16.33 2.01 -16.66 1.02 -17 0 C-14.9174133 -0.19561869 -12.83388144 -0.38119313 -10.75 -0.5625 C-9.58984375 -0.66691406 -8.4296875 -0.77132812 -7.234375 -0.87890625 C-4.48128523 -0.98198087 -2.580018 -0.86213473 0 0 Z " fill="#E9960B" transform="translate(129,46)"/>
<path d="M0 0 C4.62 0 9.24 0 14 0 C14 2.64 14 5.28 14 8 C7.07 8 0.14 8 -7 8 C-7 7.67 -7 7.34 -7 7 C1.415 6.505 1.415 6.505 10 6 C10.33 4.35 10.66 2.7 11 1 C7.37 1 3.74 1 0 1 C0 0.67 0 0.34 0 0 Z " fill="#E2B04F" transform="translate(190,63)"/>
<path d="M0 0 C1.125 2.0625 1.125 2.0625 2 4 C-0.64738916 5.4606285 -1.89448334 6 -5 6 C-5.33 6.66 -5.66 7.32 -6 8 C-8.1519437 4.77208445 -8.20086443 3.71599191 -8 0 C-2.25 -1.125 -2.25 -1.125 0 0 Z " fill="#EC9B08" transform="translate(86,28)"/>
<path d="M0 0 C0.99 0.33 1.98 0.66 3 1 C3 1.33 3 1.66 3 2 C3.66 2 4.32 2 5 2 C5 2.99 5 3.98 5 5 C1.87664774 5.91603778 -0.92602824 6.12873099 -4.17578125 6.1328125 C-5.66561523 6.13474609 -5.66561523 6.13474609 -7.18554688 6.13671875 C-8.73338867 6.13091797 -8.73338867 6.13091797 -10.3125 6.125 C-11.33279297 6.12886719 -12.35308594 6.13273437 -13.40429688 6.13671875 C-18.71079226 6.12985838 -23.7729058 5.92893352 -29 5 C-29 4.67 -29 4.34 -29 4 C-20.09 4 -11.18 4 -2 4 C-1.34 2.68 -0.68 1.36 0 0 Z " fill="#1F528B" transform="translate(51,66)"/>
<path d="M0 0 C1.875 0.3125 1.875 0.3125 4 1 C6.84052632 5.26078948 6.5215071 8.99655504 6 14 C5.22085745 16.54910223 4.24021525 18.62292077 3 21 C2.34 20.01 1.68 19.02 1 18 C0.34 18.33 -0.32 18.66 -1 19 C-1.33 18.01 -1.66 17.02 -2 16 C-1.34 15.34 -0.68 14.68 0 14 C0.66 14 1.32 14 2 14 C2.33 13.34 2.66 12.68 3 12 C3.66 12 4.32 12 5 12 C4.67 9.03 4.34 6.06 4 3 C2.68 2.67 1.36 2.34 0 2 C0 1.34 0 0.68 0 0 Z " fill="#E9A31D" transform="translate(222,41)"/>
<path d="M0 0 C0.89203125 0.10183594 1.7840625 0.20367188 2.703125 0.30859375 C3.37859375 0.39238281 4.0540625 0.47617187 4.75 0.5625 C5.08 2.2125 5.41 3.8625 5.75 5.5625 C7.07 5.8925 8.39 6.2225 9.75 6.5625 C6.78 6.5625 3.81 6.5625 0.75 6.5625 C0.75 5.2425 0.75 3.9225 0.75 2.5625 C-2.4464086 1.49703047 -4.90747276 1.48822162 -8.25 1.5625 C-8.58 2.8825 -8.91 4.2025 -9.25 5.5625 C-9.58 4.9025 -9.91 4.2425 -10.25 3.5625 C-9.92 2.5725 -9.59 1.5825 -9.25 0.5625 C-6.11637016 -0.72906365 -3.31158531 -0.39216142 0 0 Z " fill="#E0A432" transform="translate(86.25,26.4375)"/>
<path d="M0 0 C0.66 0.99 1.32 1.98 2 3 C2.99 3 3.98 3 5 3 C5.33 3.99 5.66 4.98 6 6 C2.25 7.125 2.25 7.125 0 6 C0 7.32 0 8.64 0 10 C0.66 10.66 1.32 11.32 2 12 C1.34 12.66 0.68 13.32 0 14 C-2.33002055 11.66997945 -2.41956957 10.75309505 -2.8125 7.5625 C-2.92207031 6.78003906 -3.03164062 5.99757813 -3.14453125 5.19140625 C-3 3 -3 3 -1.51171875 1.21484375 C-1.01285156 0.81394531 -0.51398438 0.41304687 0 0 Z " fill="#E9A528" transform="translate(111,56)"/>
<path d="M0 0 C1 2 2 4 3 6 C2.34 6 1.68 6 1 6 C1 9.63 1 13.26 1 17 C0.34 16.34 -0.32 15.68 -1 15 C-1.7425 15.474375 -2.485 15.94875 -3.25 16.4375 C-5.61050015 17.77869327 -7.36648477 18.512312 -10 19 C-5.22938531 13.19790105 -5.22938531 13.19790105 -3.40625 11.625 C-1.52740374 9.45388877 -1.28691838 7.62251655 -0.8125 4.8125 C-0.57466797 3.46091797 -0.57466797 3.46091797 -0.33203125 2.08203125 C-0.22246094 1.39496094 -0.11289063 0.70789062 0 0 Z " fill="#190204" transform="translate(108,51)"/>
<path d="M0 0 C0.28617187 0.61359375 0.57234375 1.2271875 0.8671875 1.859375 C2.20824575 4.39351266 3.91456214 6.05359133 6 8 C5.071875 8.61875 5.071875 8.61875 4.125 9.25 C1.93231719 11.05573879 1.07211583 12.4090534 0 15 C-2.27477677 11.46145836 -1.99082706 9.29052627 -1.125 5.25 C-0.92132813 4.26515625 -0.71765625 3.2803125 -0.5078125 2.265625 C-0.34023437 1.51796875 -0.17265625 0.7703125 0 0 Z " fill="#0B030A" transform="translate(108,32)"/>
<path d="M0 0 C3.3051074 1.02572299 4.04006555 2.06907854 5.8125 5.125 C7.45701967 9.3247142 6.8418885 12.63748688 6 17 C5.01 16.67 4.02 16.34 3 16 C3.33 12.04 3.66 8.08 4 4 C3.01 4 2.02 4 1 4 C0.67 2.68 0.34 1.36 0 0 Z " fill="#1B4A88" transform="translate(72,41)"/>
<path d="M0 0 C0 0.33 0 0.66 0 1 C-2.31 1.66 -4.62 2.32 -7 3 C-6.67 5.31 -6.34 7.62 -6 10 C-7.65 10.33 -9.3 10.66 -11 11 C-11 10.34 -11 9.68 -11 9 C-10.34 9 -9.68 9 -9 9 C-9 8.34 -9 7.68 -9 7 C-9.66 7 -10.32 7 -11 7 C-11.33 5.02 -11.66 3.04 -12 1 C-7.9472484 0.01751476 -4.16138263 -0.08159574 0 0 Z " fill="#E09507" transform="translate(195,40)"/>
<path d="M0 0 C0.66 0.33 1.32 0.66 2 1 C2 4.3 2 7.6 2 11 C0.68 11 -0.64 11 -2 11 C-2.05399736 9.54207116 -2.09279177 8.08357288 -2.125 6.625 C-2.15980469 5.40683594 -2.15980469 5.40683594 -2.1953125 4.1640625 C-2 2 -2 2 0 0 Z " fill="#010617" transform="translate(167,18)"/>
<path d="M0 0 C0 0.99 0 1.98 0 3 C-2.1171875 4.640625 -2.1171875 4.640625 -4.875 6.25 C-5.77992187 6.79140625 -6.68484375 7.3328125 -7.6171875 7.890625 C-8.40351562 8.25671875 -9.18984375 8.6228125 -10 9 C-10.66 8.67 -11.32 8.34 -12 8 C-12.625 5.9375 -12.625 5.9375 -13 4 C-12.39671875 3.87882812 -11.7934375 3.75765625 -11.171875 3.6328125 C-10.37265625 3.46523438 -9.5734375 3.29765625 -8.75 3.125 C-7.96109375 2.96257813 -7.1721875 2.80015625 -6.359375 2.6328125 C-4.03168856 2.00849925 -2.10968048 1.15161458 0 0 Z " fill="#194B86" transform="translate(54,54)"/>
<path d="M0 0 C0.33 0 0.66 0 1 0 C1 1.65 1 3.3 1 5 C0.01 5.33 -0.98 5.66 -2 6 C-1.67 6.99 -1.34 7.98 -1 9 C-2.32 9.33 -3.64 9.66 -5 10 C-5 7 -5 7 -4 4 C-5.98 4.33 -7.96 4.66 -10 5 C-9.34 4.67 -8.68 4.34 -8 4 C-8 3.01 -8 2.02 -8 1 C-7.05125 1.165 -6.1025 1.33 -5.125 1.5 C-2.19831099 2.0526635 -2.19831099 2.0526635 0 2 C0 1.34 0 0.68 0 0 Z " fill="#EBA82C" transform="translate(130,47)"/>
<path d="M0 0 C-1.8125 1.0625 -1.8125 1.0625 -4 2 C-4.99 1.67 -5.98 1.34 -7 1 C-7.33 1.99 -7.66 2.98 -8 4 C-9.36125 3.9690625 -9.36125 3.9690625 -10.75 3.9375 C-13.43791858 3.98919074 -15.49820306 4.07340854 -18 5 C-18.33 5.66 -18.66 6.32 -19 7 C-19.99 6.34 -20.98 5.68 -22 5 C-5.88616475 -1.80215176 -5.88616475 -1.80215176 0 0 Z " fill="#1C4E88" transform="translate(56,27)"/>
<path d="M0 0 C1.134375 0.020625 2.26875 0.04125 3.4375 0.0625 C1.75 3.0625 1.75 3.0625 -0.5625 6.0625 C-3.3125 6.4375 -3.3125 6.4375 -5.5625 6.0625 C-5.5625 5.4025 -5.5625 4.7425 -5.5625 4.0625 C-6.5525 3.7325 -7.5425 3.4025 -8.5625 3.0625 C-7.923125 2.753125 -7.28375 2.44375 -6.625 2.125 C-2.58814103 0.04540598 -2.58814103 0.04540598 0 0 Z " fill="#19497F" transform="translate(137.5625,6.9375)"/>
<path d="M0 0 C7.75 -0.125 7.75 -0.125 10 1 C10 3.31 10 5.62 10 8 C6.7 8 3.4 8 0 8 C0 7.67 0 7.34 0 7 C2.97 7 5.94 7 9 7 C8.67 6.01 8.34 5.02 8 4 C7.05125 3.896875 6.1025 3.79375 5.125 3.6875 C2 3 2 3 0 0 Z " fill="#E9AD3F" transform="translate(190,51)"/>
<path d="M0 0 C0.66 0 1.32 0 2 0 C2 2.97 2 5.94 2 9 C4.31 9 6.62 9 9 9 C9 9.99 9 10.98 9 12 C3.375 12.25 3.375 12.25 0 10 C-1.1875 6.875 -1.1875 6.875 -2 4 C-1.34 4 -0.68 4 0 4 C0 2.68 0 1.36 0 0 Z " fill="#E9A114" transform="translate(138,42)"/>
<path d="M0 0 C5.98993047 -0.3152595 9.63560356 0.31780178 15 3 C15.33 2.34 15.66 1.68 16 1 C16.66 1.33 17.32 1.66 18 2 C17.67 2.99 17.34 3.98 17 5 C15.63875 4.7215625 15.63875 4.7215625 14.25 4.4375 C11.31685676 4.04265379 9.7355343 4.05308428 7 5 C7 3.68 7 2.36 7 1 C4.69 1 2.38 1 0 1 C0 0.67 0 0.34 0 0 Z " fill="#214A81" transform="translate(163,7)"/>
<path d="M0 0 C0.33 1.32 0.66 2.64 1 4 C0.01 4.495 0.01 4.495 -1 5 C-1.39460023 7.32375692 -1.72230092 9.6593935 -2 12 C-2.3062434 13.33981486 -2.63451555 14.67511887 -3 16 C-3.185625 16.7425 -3.37125 17.485 -3.5625 18.25 C-3.706875 18.8275 -3.85125 19.405 -4 20 C-5.35556483 13.34540903 -4.65032747 8.28139286 -2 2 C-1.34 1.34 -0.68 0.68 0 0 Z " fill="#214D83" transform="translate(11,37)"/>
<path d="M0 0 C0.99 0.33 1.98 0.66 3 1 C3 1.33 3 1.66 3 2 C3.66 2 4.32 2 5 2 C5 2.99 5 3.98 5 5 C3.02 5 1.04 5 -1 5 C-0.67 3.35 -0.34 1.7 0 0 Z " fill="#1D4E75" transform="translate(51,66)"/>
<path d="M0 0 C0.99 0.33 1.98 0.66 3 1 C3 4.3 3 7.6 3 11 C2.01 11.33 1.02 11.66 0 12 C0 8.04 0 4.08 0 0 Z " fill="#020415" transform="translate(215,18)"/>
<path d="M0 0 C0.33 1.32 0.66 2.64 1 4 C1.66 4 2.32 4 3 4 C3 4.99 3 5.98 3 7 C1.1875 7.625 1.1875 7.625 -1 8 C-1.99 7.34 -2.98 6.68 -4 6 C-4 4.68 -4 3.36 -4 2 C-2.68 1.34 -1.36 0.68 0 0 Z " fill="#F09B05" transform="translate(223,58)"/>
<path d="M0 0 C2.64 0 5.28 0 8 0 C8.33 1.65 8.66 3.3 9 5 C7.02 5 5.04 5 3 5 C3 4.01 3 3.02 3 2 C2.01 1.67 1.02 1.34 0 1 C0 0.67 0 0.34 0 0 Z " fill="#1B487D" transform="translate(84,21)"/>
<path d="M0 0 C0.66 0.66 1.32 1.32 2 2 C1.625 5.125 1.625 5.125 1 8 C0.34 8 -0.32 8 -1 8 C-1.33 6.68 -1.66 5.36 -2 4 C-4.97 3.505 -4.97 3.505 -8 3 C-8 2.67 -8 2.34 -8 2 C-6.71254964 1.61077082 -5.41980403 1.23901964 -4.125 0.875 C-3.04605469 0.56175781 -3.04605469 0.56175781 -1.9453125 0.2421875 C-1.30335938 0.16226563 -0.66140625 0.08234375 0 0 Z " fill="#0B070C" transform="translate(131,38)"/>
<path d="M0 0 C0.33 0 0.66 0 1 0 C1 3.96 1 7.92 1 12 C2.32 11.67 3.64 11.34 5 11 C5.33 10.34 5.66 9.68 6 9 C6 11.64 6 14.28 6 17 C5.34 16.67 4.68 16.34 4 16 C4 15.01 4 14.02 4 13 C2.68 13 1.36 13 0 13 C0 8.71 0 4.42 0 0 Z " fill="#1C4976" transform="translate(214,18)"/>
<path d="M0 0 C1.4540625 0.0309375 1.4540625 0.0309375 2.9375 0.0625 C2.9375 1.3825 2.9375 2.7025 2.9375 4.0625 C2.009375 4.041875 1.08125 4.02125 0.125 4 C-3.08536011 3.90480396 -3.08536011 3.90480396 -6.0625 5.0625 C-3.64893617 0.07446809 -3.64893617 0.07446809 0 0 Z " fill="#EB9706" transform="translate(172.0625,51.9375)"/>
<path d="M0 0 C0.99 0 1.98 0 3 0 C3 0.66 3 1.32 3 2 C3.99 2.33 4.98 2.66 6 3 C6 4.98 6 6.96 6 9 C4.68 8.67 3.36 8.34 2 8 C2.99 8 3.98 8 5 8 C4.38125 7.38125 3.7625 6.7625 3.125 6.125 C1.75 4.75 0.375 3.375 -1 2 C-0.67 1.34 -0.34 0.68 0 0 Z " fill="#EDA525" transform="translate(116,55)"/>
<path d="M0 0 C0.33 1.32 0.66 2.64 1 4 C-5.6 4 -12.2 4 -19 4 C-19 3.67 -19 3.34 -19 3 C-17.79601562 2.95101562 -16.59203125 2.90203125 -15.3515625 2.8515625 C-13.77601802 2.77653657 -12.20049834 2.70098867 -10.625 2.625 C-9.8309375 2.5940625 -9.036875 2.563125 -8.21875 2.53125 C-3.63332625 2.48183579 -3.63332625 2.48183579 0 0 Z " fill="#012951" transform="translate(203,36)"/>
<path d="M0 0 C1.5 1.375 1.5 1.375 3 3 C3 3.66 3 4.32 3 5 C3.99 5.33 4.98 5.66 6 6 C3 7 3 7 -0.125 5.6875 C-3 4 -3 4 -4 2 C-2.68 2.33 -1.36 2.66 0 3 C0 2.01 0 1.02 0 0 Z " fill="#154C89" transform="translate(16,63)"/>
<path d="M0 0 C0.66 0.33 1.32 0.66 2 1 C2 1.66 2 2.32 2 3 C-1.96 4.98 -1.96 4.98 -6 7 C-6.33 6.34 -6.66 5.68 -7 5 C-6.01 5 -5.02 5 -4 5 C-4.33 4.01 -4.66 3.02 -5 2 C-2.625 0.9375 -2.625 0.9375 0 0 Z " fill="#123F71" transform="translate(71,59)"/>
<path d="M0 0 C0.33 0 0.66 0 1 0 C1 1.98 1 3.96 1 6 C-1.97 6 -4.94 6 -8 6 C-8 5.34 -8 4.68 -8 4 C-7.34 4 -6.68 4 -6 4 C-5.67 3.34 -5.34 2.68 -5 2 C-5 2.66 -5 3.32 -5 4 C-3.35 4 -1.7 4 0 4 C0 2.68 0 1.36 0 0 Z " fill="#F4A209" transform="translate(175,52)"/>
<path d="M0 0 C0.33 0.99 0.66 1.98 1 3 C1.66 3.66 2.32 4.32 3 5 C2.01 5 1.02 5 0 5 C-0.33 5.66 -0.66 6.32 -1 7 C-1 6.34 -1 5.68 -1 5 C-2.98 5 -4.96 5 -7 5 C-2.25 0 -2.25 0 0 0 Z " fill="#030518" transform="translate(181,35)"/>
<path d="M0 0 C1.65 0 3.3 0 5 0 C5 1.32 5 2.64 5 4 C3.02 4.33 1.04 4.66 -1 5 C-0.67 3.35 -0.34 1.7 0 0 Z " fill="#8D600E" transform="translate(117,47)"/>
<path d="M0 0 C1.875 0.3125 1.875 0.3125 4 1 C6.20914 4.31371 6.22481553 5.3446021 6.125 9.1875 C6.10695312 10.08855469 6.08890625 10.98960938 6.0703125 11.91796875 C6.03550781 12.94857422 6.03550781 12.94857422 6 14 C5.67 14 5.34 14 5 14 C4.67 10.37 4.34 6.74 4 3 C2.68 2.67 1.36 2.34 0 2 C0 1.34 0 0.68 0 0 Z " fill="#EDB036" transform="translate(222,41)"/>
<path d="M0 0 C0.6875 1.8125 0.6875 1.8125 1 4 C-0.4375 5.75 -0.4375 5.75 -2 7 C-2.99 6.67 -3.98 6.34 -5 6 C-4.67 4.68 -4.34 3.36 -4 2 C-3.01 2.33 -2.02 2.66 -1 3 C-0.67 2.01 -0.34 1.02 0 0 Z " fill="#1C4A80" transform="translate(228,32)"/>
<path d="M0 0 C0.33 0 0.66 0 1 0 C0.93976735 1.60520004 0.85091401 3.20934327 0.75 4.8125 C0.70359375 5.70582031 0.6571875 6.59914063 0.609375 7.51953125 C0 10 0 10 -2.046875 11.82421875 C-3.01367188 12.40623047 -3.01367188 12.40623047 -4 13 C-4.66 12.34 -5.32 11.68 -6 11 C-4.35 10.34 -2.7 9.68 -1 9 C-0.67 6.03 -0.34 3.06 0 0 Z " fill="#214D7F" transform="translate(19,24)"/>
<path d="M0 0 C1.32 0.66 2.64 1.32 4 2 C3.67 4.97 3.34 7.94 3 11 C0.70986347 7.5647952 0.82157027 6.014669 1 2 C0.34 1.67 -0.32 1.34 -1 1 C-0.67 0.67 -0.34 0.34 0 0 Z " fill="#1E4C80" transform="translate(116,18)"/>
<path d="M0 0 C3.3 0.33 6.6 0.66 10 1 C10 1.33 10 1.66 10 2 C8.02 2 6.04 2 4 2 C4 2.66 4 3.32 4 4 C2.68 3.67 1.36 3.34 0 3 C0 2.01 0 1.02 0 0 Z " fill="#EBA01E" transform="translate(160,40)"/>
<path d="M0 0 C0.66 0.33 1.32 0.66 2 1 C1.38125 1.4125 0.7625 1.825 0.125 2.25 C-2.06768281 4.05573879 -2.92788417 5.4090534 -4 8 C-4.66 8 -5.32 8 -6 8 C-5.8125 5.6875 -5.8125 5.6875 -5 3 C-2.5625 1.125 -2.5625 1.125 0 0 Z " fill="#234A7C" transform="translate(161,8)"/>
<path d="M0 0 C-0.99 0 -1.98 0 -3 0 C-3.33 1.32 -3.66 2.64 -4 4 C-4.99 4 -5.98 4 -7 4 C-7.33 3.01 -7.66 2.02 -8 1 C-4.93251126 -0.86240388 -3.40254489 -1.2151946 0 0 Z " fill="#EFA41D" transform="translate(118,41)"/>
<path d="M0 0 C0.33 0 0.66 0 1 0 C1.33 2.64 1.66 5.28 2 8 C0.68 7.67 -0.64 7.34 -2 7 C-2 6.34 -2 5.68 -2 5 C-3.32 4.67 -4.64 4.34 -6 4 C-4.02 4 -2.04 4 0 4 C0 2.68 0 1.36 0 0 Z " fill="#150F19" transform="translate(93,22)"/>
<path d="M0 0 C0.66 0 1.32 0 2 0 C2 1.98 2 3.96 2 6 C0.68 5.67 -0.64 5.34 -2 5 C-1.125 1.125 -1.125 1.125 0 0 Z " fill="#EFA312" transform="translate(178,64)"/>
<path d="M0 0 C0.99 0.66 1.98 1.32 3 2 C1.8125 3.5625 1.8125 3.5625 0 5 C-2.6875 4.6875 -2.6875 4.6875 -5 4 C-3.35 2.68 -1.7 1.36 0 0 Z " fill="#E0A328" transform="translate(71,62)"/>
<path d="M0 0 C0 1.98 0 3.96 0 6 C-0.66 6 -1.32 6 -2 6 C-2.66 4.35 -3.32 2.7 -4 1 C-2 0 -2 0 0 0 Z " fill="#0B0205" transform="translate(132,52)"/>
<path d="M0 0 C0.99 0 1.98 0 3 0 C3 0.66 3 1.32 3 2 C3.639375 2.12375 4.27875 2.2475 4.9375 2.375 C5.618125 2.58125 6.29875 2.7875 7 3 C7.33 3.66 7.66 4.32 8 5 C6.35 5 4.7 5 3 5 C2.87625 4.360625 2.7525 3.72125 2.625 3.0625 C2.315625 2.0415625 2.315625 2.0415625 2 1 C1.34 0.67 0.68 0.34 0 0 Z " fill="#E5AD3F" transform="translate(96,33)"/>
<path d="M0 0 C1.32 0.33 2.64 0.66 4 1 C4 1.99 4 2.98 4 4 C5.65 4 7.3 4 9 4 C9 4.33 9 4.66 9 5 C6.69 5 4.38 5 2 5 C1.34 3.35 0.68 1.7 0 0 Z " fill="#284B75" transform="translate(122,18)"/>
</svg>
