<svg width="136" height="46" viewBox="0 0 136 46" xmlns="http://www.w3.org/2000/svg"><g fill="none" fill-rule="nonzero"><path d="M34,28c0,9.59-5.83,16-14.73,16-4.42,0-7.9-1.76-10.2-4.94v4.59H0V0h9.07v16.65c2.24-3.18,5.72-4.94,10.02-4.94C27.99,11.7,34,18.24,34,28m-9.19-.29c0-5.06-3.18-8.71-7.84-8.71s-7.9,3.59-7.9,8.71c0,5.24,3.24,8.76,7.9,8.76s7.84-3.59,7.84-8.76" fill="#032D60"/><path d="M62.84,34.58L68.2,39.39C64.42,43.78,59.42,46,53.44,46,43.01,46,36,39.39,36,29.53S42.53,13.06,52.84,13C62.35,12.94,68.63,18.65,69,27.91L46.31,33.8c1.4,3.13,4.21,4.99,7.81,4.99,3.17,0,6.22-1.44,8.72-4.21M45.39,28.27l14.4-3.85c-1.04-3.12-3.3-4.57-6.47-4.57-4.64,0-7.63,2.95-7.93,8.42" fill="#032D60"/><path d="M89,42.79c-2.46,1.38-5.53,2.21-8.42,2.21C74.49,45,70,41.23,70,34.36V5h9.41v8.85h9.04v6.4h-9.04v12.55c0,3.05,1.29,4.43,3.38,4.43,1.23,0,2.65-.36,4.24-1.2L89,42.79z" fill="#032D60"/><path d="M122,12.36v32.28h-9.03V40.02c-2.24,3.18-5.67,4.98-9.98,4.98C93.96,45,88,38.34,88,28.38,88,18.6,93.84,12.06,102.7,12c4.49,0,7.97,1.8,10.27,5.04v-4.68H122zm-9.03,17.34v-2.16c-.47-4.68-3.54-7.86-7.85-7.86-4.72,0-7.97,3.72-8.03,8.94.06,5.28,3.25,8.94,8.03,8.94,4.31,0,7.38-3.18,7.85-7.86z" fill="#032D60"/><path d="M136,39.5c0,2.42-2.08,4.5-4.5,4.5S127,41.92,127,39.5,129.08,35,131.5,35,136,37.08,136,39.5" fill="#EA8223"/></g></svg>
