<svg width="301" height="85" fill="none" xmlns="http://www.w3.org/2000/svg"><path d="M171.718 42.206a3.704 3.704 0 00-1.084-1.425c-.911-.733-2.173-1-3.46-.637-.19.03-.381.065-.571.095.184-.363.369-.733.548-1.102.268-.566.53-1.133.78-1.71.25-.573.488-1.199.714-1.8.221-.578.441-1.306.632-1.973l.143-.524.16-.674.143-.673c.06-.316.119-.638.185-.96l.042-.184c.017-.084.029-.167.047-.257.03-.172.06-.345.078-.53.047-.554.119-.954 0-2.086-.024-.333-.233-1.352-.56-2.091l-.131-.298c-.066-.143-.143-.28-.22-.424a7.049 7.049 0 00-.531-.816 9.226 9.226 0 00-.625-.75 7.567 7.567 0 00-1.751-1.353 5.404 5.404 0 00-.494-.257c-.173-.083-.28-.125-.429-.185a8.279 8.279 0 00-1.745-.464l-.208-.03-.143-.012-.292-.018c-.196-.012-.393-.012-.589-.012a9.709 9.709 0 00-.59.03l-.22.024-.179.024a7.784 7.784 0 00-.721.143l-.178.041-.125.036-.227.072c-.154.047-.303.1-.458.155l-.191.077-.155.066c-.464.196-.738.351-1.036.512-.518.298-.899.56-1.25.81-.679.495-1.227.954-1.781 1.437a52.85 52.85 0 00-1.632 1.49c-.423.405-.863.828-1.304 1.263.179-.489.411-1.168.691-2.062.25-.793.53-1.758.816-2.944.065-.31.137-.632.208-.965.066-.346.131-.757.191-1.145.018-.089.03-.214.041-.345l.036-.382c.012-.13.018-.256.03-.387l.012-.197c.006-.107.006-.28 0-.417l-.012-.435a3.63 3.63 0 00-.048-.494 9.49 9.49 0 00-.101-.596l-.065-.298a7.894 7.894 0 00-.09-.334 9.04 9.04 0 00-.286-.78 5.91 5.91 0 00-.405-.805c-.375-.608-.774-1.144-1.381-1.669a6.875 6.875 0 00-.929-.691 7.493 7.493 0 00-1.447-.673c-.179-.066-.28-.09-.429-.126a7.762 7.762 0 00-.84-.172c-.31-.048-.506-.054-.72-.066a7.87 7.87 0 00-.65 0c-.238.006-.369.024-.536.042-.16.018-.321.041-.482.065l-.238.042-.185.042-.369.09-.363.1-.292.102c-.185.065-.411.143-.566.208l-.482.215c-.31.143-.572.28-.84.429-.238.137-.506.286-.72.423a20.1 20.1 0 00-1.263.864c-1.56 1.162-2.87 2.396-4.145 3.737a48.821 48.821 0 00-3.65 4.344c-.298.387-.578.787-.87 1.186l-.816 1.174c-.351.5-.708 1.007-1.066 1.52l.024-.12c.036-.155.03-.256.042-.387.018-.244.041-.489.059-.733.06-.936.018-1.68-.077-2.294-.036-.334-.095-.578-.143-.864a2.344 2.344 0 00-.089-.37c-.036-.113-.072-.22-.102-.334-.131-.405-.25-.798-.369-1.18a6.612 6.612 0 00-.375-.9c-.25-.512-.494-.887-.697-1.263a5.025 5.025 0 00-.321-.494c-.06-.078-.119-.155-.191-.233a1.32 1.32 0 00-.131-.125 1.206 1.206 0 00-.25-.173c-.369-.197-.536-.226-.721-.286-.172-.048-.315-.077-.434-.107-.239-.06-.393-.096-.471-.125-.226-.084-.881-.22-1.667-.203a6.864 6.864 0 00-1.162.036c-.375.047-.708.119-.875.143-1.179.226-2.436.81-3.901 1.871-1.477 1.067-3.138 2.592-5.258 4.44a89.365 89.365 0 00-5.295 5.071c-1.804 1.871-3.656 3.85-5.377 6.013-.971 1.079-1.697 2.336-2.287 3.552-.596 1.221-1.066 2.413-1.638 3.504-.13.465-.22.852-.297 1.198-.066.334-.15.667-.114.84.024.411.072.727.155.983.161.519.459.829.989 1.246.816.852 1.852 1.633 2.888 2.032.262.101.518.173.774.22.25.054.536.036.727.078.417.053.75.03.994-.131 2.126-1.139 3.288-1.43 3.949-1.252.649.173.726.757.601 1.437a6.303 6.303 0 01-.095.434l-.024.12c-.006.036-.012.113-.048.184a8.352 8.352 0 01-.196.4c-.262.5-.482.876-.655 1.168-.346.578-.524.822-.625.935-.066.078-.096.096-.108.096h-.006l-.065.393a22.41 22.41 0 00-.185 1.406c-.029.28-.053.567-.065.942-.012.16-.012.381-.012.596 0 .19.006.489.024.757l.018.214.029.275c.024.184.048.363.078.548.047.256.101.506.161.763l.047.19.024.096.042.137a9.901 9.901 0 00.411 1.084c.029.072.101.215.166.34.066.131.137.256.209.381.309.513.554.912 1.173 1.58.28.297.578.572.893.822l.238.185.286.196c.191.131.393.25.602.364.411.226.84.423 1.274.578a8.14 8.14 0 001.197.316c.405.077.816.125 1.221.143l.244.006h.215c.143 0 .286-.012.434-.018.292-.018.578-.054.864-.102l.214-.035.173-.036.268-.066a9.432 9.432 0 001.06-.333 9.22 9.22 0 00.679-.298c.494-.239.709-.376 1-.554.316-.197.459-.304.661-.453a15.606 15.606 0 001.561-1.335l.286-.28.095-.096c-.274.703-.542 1.4-.816 2.092l-.333.852-.042.108-.143.405-.083.256c-.042.143-.078.28-.114.423l-.047.215-.024.107-.03.16c-.053.31-.095.626-.113.936l-.012.239c0 .065-.006.137 0 .393.012.411.054.828.131 1.234.042.202.089.405.143.608.077.25.071.28.232.697a7.46 7.46 0 001.62 2.485 7.223 7.223 0 002.305 1.573c.869.376 1.84.584 2.721.602.328.006.411 0 .632-.012a7.53 7.53 0 001.685-.292c.226-.066.256-.083.333-.107l.215-.078c.143-.053.28-.113.417-.172.137-.06.274-.126.405-.197l.214-.113c.125-.072.25-.15.375-.22l.173-.114.107-.072a9.39 9.39 0 00.399-.286l.274-.214.22-.179.191-.167c.22-.197.405-.363.572-.518.327-.31.595-.578.851-.84 1.013-1.032 1.846-1.95 2.698-2.867.822-.9 1.638-1.794 2.448-2.67a190.64 190.64 0 002.965-3.313l.054.071.268.364c-.161.483-.316.971-.476 1.454-.155.554-.316 1.102-.477 1.77-.077.34-.167.697-.238 1.245-.018.155-.036.25-.042.477-.006.215-.024.346.006.703.012.161.024.292.06.483.047.256.119.518.208.763l.078.19c.041.102.095.203.143.298.107.197.226.388.357.573.065.089.137.178.208.262.072.09.191.208.298.304a4.515 4.515 0 001.102.739 4.512 4.512 0 001.459.364l.238.005c.161 0 .322-.006.476-.024l.239-.03c.083-.011.16-.023.196-.035l.274-.066.268-.077c.089-.03.191-.066.232-.078.108-.041.215-.09.322-.137l.161-.071.113-.06c.137-.072.31-.167.411-.226l.315-.197.257-.173.452-.316c.483-.357.965-.709 1.453-1.072a52.99 52.99 0 001.167-1.115l.536.107.167.036c.036.006.054.012.042.012v-.006c.018-.09.059-.268.131-.506l.113-.37c.042-.13.077-.202.113-.31l.036-.095.244-.25.834-.853a55.55 55.55 0 003.293-3.736c1.03-1.27 1.977-2.515 2.918-3.623a26.188 26.188 0 012.984-3.04 24.42 24.42 0 002.352-1.662 25.896 25.896 0 002.549-2.229c1.614-1.633 2.93-3.444 2.984-5.644-.131-.69-.274-1.352-.501-1.936zm-31.277-23.927c0 .006 0-.006 0 0zm-28.299 30.726s-.006-.006 0 0z" fill="#FFE600"/><path d="M84.402 47.504c-.066.047-.15.083-.19.155-.019.03-.025.065-.043.095a.259.259 0 01-.125.084c-1.709.78-3.501 1.835-5.437 1.8a.367.367 0 01-.16-.03c-.048-.024-.078-.072-.108-.12-.006-.006-.006-.012-.012-.018.06-.226.084-.465.06-.715 0-.018-.066-.75.018-1.68.03-.155.047-.31.053-.46.167-1.15.602-2.46 1.662-3.062a2.01 2.01 0 00.476-.388c.352-.226.733-.44 1.108-.488.101-.012.202-.012.304.006.226.041.428.167.601.316.864.72 1.233 1.918 1.697 2.908.102.214.209.435.274.667.096.328.096.74-.178.93zm2.53-3.081c-.535-1.264-1.178-2.527-2.15-3.516-.493-.507-1.071-.924-1.744-1.174-1.18-.435-2.507-.376-3.704-.024-.113.036-.22.077-.334.12a1.901 1.901 0 00-.845.25c-3.967 2.252-3.847 7.538-3.758 8.837-.44 4.112.065 8.576-.036 12.58 0 .358 1.584 1.717 2.9 1.585.661-.53 1.185-1.054 1.316-1.847-.923-2.24-.262-5.28-.524-7.652-.017-.172.846-.524.977-.578.435-.196.893-.34 1.358-.447a9.89 9.89 0 012.25-.262c.733 0 1.126-.179 1.805-.5.798-.382 1.555-.877 2.323-1.306.13-.071.268-.154.34-.286.124-.22.422-.274.47-.524.03-.167.125-.316.184-.47.096-.251.102-.52.102-.782 0-.703-.06-1.406-.22-2.091-.161-.668-.447-1.287-.71-1.913zm-51.007 5.74c-.947 1.054-4.729.834-5.348.482-.328-.202-.316-.775 0-1.007 1.322-.983 3.662-.971 5.479-.763.006.376.089 1.043-.131 1.288zm3.358-8.224c-.792-1.186-1.447-2.51-2.769-3.034-2.77-.923-5.67.793-7.778 2.241v.53c1.454 4.357 4.616-.661 7.385.53.53.924.4 3.034-.262 3.696-3.031-1.186-7.123.661-9.23 2.902-.263.792-1.454 2.11-.263 3.033 2.9 4.618 8.969.661 13.054.53.548-.089 1.322-1.835 1.185-2.77-1.715-1.854-.13-5.549-1.322-7.658zm30.433 8.491c.476-4.792-3.639-9.524-7.688-9.458-1.144-.31-1.805.608-2.389 1.27-1.56 1.215-2.388 2.77-3.597 4.219-1.125-1.4-.714-2.926-2-4.232-1.001-1.364-4.092-.554-4.163-.19l-1.138 2.097c-.119-.774-.244-1.633-.387-2.574a1.78 1.78 0 00-2.019-1.496 1.783 1.783 0 00-1.494 2.02c.399 2.67.947 6.323 1.256 8.415-.09.62-.036 1.24.28 1.86a1.78 1.78 0 001.388 1.334c.31.131.655.161 1.006-.042.036-.035.066-.071.101-.107.542-.262.93-.798.983-1.424.9-1.722 1.465-3.975 2.56-5.405.727.334.942 1.072 1.275 1.847 1.03 1.234 1.733 4.708 4.228 3.057.852-2.64 2.543-4.368 3.443-6.18 5.752-1.585 3.055 5.882 6.806 7.17.673.041 1.084.017 1.638-.513.584-.12.798-1.43-.09-1.669zm-48.625-1.878l-6.42 1.496-.202.041c-3.906.757-8.88.805-10.368-3.295-.81-2.229-1.257-7.407 6.402-10.19l1.763-.698c.816-.298 2.28-.822 7.098-1.448.18 0 .358-.018.536-.071a2.011 2.011 0 00-1.012-3.891v-.013c-1.888.09-4.336.596-6.426 1.36-7.01 2.55-11.005 5.804-12.399 12.144-.113.626-.125 1.806.4 3.91 1.375 3.623 4.775 5.828 10.397 6.728 3.341-.167 6.158-.662 8.391-1.478l1.12-.406c2.775-1.424 2.465-2.687 2.156-3.557-.382-.763-1.203-.686-1.436-.632zm236.459-6.377c.024-2.098.245-4.154.894-6.156.077-.238.166-.495.226-.75.066-.275.101-.55.072-.823-.054-.441-.37-.799-.376-1.246-.006-.214.06-.423.066-.638.006-.78-.971-.75-1.507-.607-.792.214-1.405.876-1.715 1.627-.173.417-.25.87-.328 1.317-.774 4.505-1.661 9.302-.649 13.843.06.28.81 3.48 1.787 4.851.149.131.792-.042 1.209-.06.917-.041 1.477-1.12 1.596-1.925.077-.5-.078-1.007-.215-1.495a28.046 28.046 0 01-1.06-7.938zm-13.267 9.132c-1.209-.376-3.805 0-4.311-.84.327-1.598 3.531-1.401 4.526-.614-.048.661.649 1.096-.215 1.454zm-.929-12.193c-1.876-.554-3.776-.197-5.187 1.007-.387 1.085-.238 2.36.602 2.908 1.524.858 2.673.721 3.239-1.03.894-.108 1.239.63 2.055.923.935 1.317 1.465 2.545 1.25 3.999l-3.311-.644c-2.703-.524-6.586.947-6.491 3.742 0 .084.006.173 0 .257-.006.101.071.184.101.286.703 2.384 4.097 3.48 6.694 3.712 2.358.239 5.127.686 6.432-1.412.178-2.872 1.268-6.758-.751-9.624-1.393-1.92-2.846-3.302-4.633-4.124zm36.619-2.688c-.047-1.156-.089-.47.036-2.783 0-2.056-2.055-1.841-3.341-1.067l-.423 3.868c-1.798.387-3.859-.697-4.496 1.102 0 0-.482 1.002 0 1.64.703.917 3.007.893 3.984 1.12 1.155 3.6-2.054 12.467 3.085 13.366h.304c.131 0 .333-.292.339-.512-.256-2.956.387-10.298.125-12.997 1.543-.388 2.442.333 3.859-.054.387-.513 1.031-1.156.899-2.056-.643-2.193-3.215-.34-4.371-1.627zm-49.6 3.872l-.023-.048c-.012-.006-.024-.012-.042-.018a1.874 1.874 0 00-1.012-.483c-.644-.31-1.287-.518-2.037-.012-1.155 4.375 1.405 6.907-2.966 10.12-.643.512-1.798.9-2.442.387-1.03-1.288-1.286-2.956-.899-4.5-.131-1.156 1.56-5.321.018-6.477-.774-.132-1.929-.9-2.698 0-.506 2.783-1.858 8.033-.226 10.828.798 1.37 1.852 1.883 1.852 1.883.34.417.798.971.798.971 2.573 1.544 4.115-.125 6.557-.9.28-.172.53-.34.762-.506.006.06.006.107.012.137a1.91 1.91 0 001.781 1.847c.041 0 .083.006.125.006.994 0 1.834-.775 1.9-1.782.011-.196.017-.303-.906-10.285a1.907 1.907 0 00-.554-1.168zm37.534.287c-.321-.435-1.012-.435-1.417-.388-.512 0-1.525-.214-1.543.388-.143 3.128-1.56 10.303 1.4 12.49.387.9 1.673.388 2.317 0 .387-1.674-.132-2.83-.257-4.505.125-1.156.143-6.698-.5-7.985zm-1.582-3.552a2.036 2.036 0 002.036-2.038 2.036 2.036 0 10-4.073 0c0 1.126.911 2.038 2.037 2.038zm33.916 2.832c-.286-.4-.768-.78-1.281-.983-1.125-.441-1.792.345-2.328 1.245-.78 1.311-1.489 2.658-2.186 4.017a15.97 15.97 0 01-.964 1.674c-.072.107-.745.99-.655 1.114-1.543-2.187-2.829-4.374-3.603-6.942-.316-1.055-1.984-1.418-2.889-1.359a.832.832 0 00-.363.084c-.482.268-.351.995-.238 1.424a23.364 23.364 0 001.858 4.904c.75 1.46 1.667 2.831 2.334 4.339.411.924.9 2.104.655 3.14-.19.805-.792 1.615-1.185 2.348a541.38 541.38 0 01-1.381 2.587c-.387.72-.775 1.448-1.162 2.169-.405.763-.994 1.37-.625 2.294.214.537.643.954 1.096 1.305 1.667 1.3 2.918.346 3.662-1.263 1.042-2.27 1.692-4.732 2.609-7.05 2.447-4.511 3.722-9.612 6.658-13.867.089-.131.184-.268.22-.43.054-.262-.077-.53-.232-.75zM133.78 31.878c.518-.238 1.084-.405 1.584-.554.352-.102.679-.203.917-.298.548-.167.941-.256 1.001-.799.053-.506-.191-.971-.655-1.24-.739-.428-1.251-.339-2.025-.202-.25.042-.542.095-.881.137-.584.072-1.108.43-1.632.715-.119.066-.238.131-.34.185-1.351.697-2.227 1.89-2.614 3.534-.333 1.424-.155 2.997.494 4.428.459 1.007 1.168 2.276 2.549 3.093 1.275.756 1.882 1.013 2.501.989.31-.012.59-.096.894-.22.482-.203.762-.59.762-1.067 0-.799-.727-1.36-1.9-1.872-.702-.31-1.596-1.24-2.179-2.08-.59-.84-.62-1.99-.09-2.92.423-.655.965-1.525 1.614-1.83zm-27.3 24.548c-.87-.537-1.799-.113-2.614.262-.316.143-1.656.447-1.906.542-.81.316-1.406.566-2.096 1.115-.185.149-.47.476-.376 1.156.042.286.292 1.043 1.007 1.323a.71.71 0 00.244.047.789.789 0 00.5-.196c.048-.03.256-.113.423-.185.292-.12 1.423-.56 1.799-.703.083-.03.16-.072.232-.113.923-.549 1.423-.525 2.358-1.115l.649-.357c.209-.167.227-.03.298-.37.113-.542-.083-1.09-.518-1.406zM118.431 7.56c.191.226.369.44.482.62.525.822 2.103 3.057 2.537 3.063h.006c.346 0 1.156-.298 1.489-.877.143-.25.137-1.019-.131-1.513-.19-.596-.828-1.287-1.09-1.83l-.166-.351c-.977-1.633-1.567-2.11-1.942-2.765-1.858-3.212-3.734-3.671-4.252-3.26-.643.512-.834 1.049-.762 1.365.095.518 3.436 5.077 3.829 5.548zm39.145 6.328a.67.67 0 00.113.006c.285 0 .595-.179.821-.37.292-.244.608-.458.888-.709.143-.13 2.388-2.455 3.043-3.307.536-.697 4.556-4.69 4.222-5.417-.297-.65-1.358-2.187-2.989-.584-.506.5-3.955 4.237-4.3 4.797-.131.215-.25.411-.387.59-.131.185-.274.364-.417.548l-.25.322c-.506.656-1.376 1.335-1.656 2.128l-.006.018c-.148.548-.095 1.102.149 1.477.167.269.435.441.769.501zm11.648 14.622c.108 0 .221-.019.334-.048.5-.167 1.655-.233 2.191-.34 1.048-.209 1.841-.489 2.734-1.15.762-.674.714-1.502.214-2.11-.351-.423-.417-.655-1.411-.494a6.576 6.576 0 00-1.638.494c-.286.125-.572.245-.857.358-.781.322-1.591.655-2.329 1.102-.28.155-.447.572-.47.81-.054.454.125.793.47 1.091.22.185.488.286.762.286zm.055 37.591l-.191-.101c-1.078-.632-2.346-1.335-3.638-1.824-.435-.167-.947.131-1.156.525-.381.84.304 1.43.852 1.907.161.143.315.274.458.429l.679.548c.608.495 1.34.99 1.942 1.454.303.316.714.53 1.221.638a.867.867 0 00.214.024c.25 0 .5-.102.732-.304.465-.4.775-1.12.757-1.395-.078-1.013-1.126-1.508-1.87-1.9zM105.305 20.06l.239.071c1.274.453 4.073 1.192 4.276 1.234a.952.952 0 00.131.012c.41 0 .798-.358.911-.74.214-.893-.566-1.346-1.191-1.71-.137-.083-.274-.154-.399-.244a2.633 2.633 0 00-.274-.16l-1.025-.483a95.468 95.468 0 00-2.03-1.073c-.346-.244-.769-.375-1.322-.4-.322-.023-.655.305-.858.602-.345.507-.441 1.073-.25 1.496.321.942 1.036 1.162 1.792 1.395zm53.969 64.599c1.227-.656.56-1.758.429-2.122-.381-1.073-3.138-4.815-3.531-5.322a17.06 17.06 0 00-.375-.435c-.93-1.192-1.99-2.532-2.275-2.824a1.312 1.312 0 00-.929-.382h-.018c-.417.006-.828.19-1.144.519-.393.488-.214 1.162.125 1.74.501.852.888 1.317 1.281 2.032.137.25.506.769.506.769l.149.208c.214.358 3.549 4.917 3.549 4.917.143.208.441.524.685.715.292.22.649.328 1.012.328a.801.801 0 00.233-.042c-.006.006.286-.09.303-.101zm-25.162-.661c.12.376.924.77 1.799.77.196 0 .387-.019.554-.067.381-.1.965-.423.804-1.4a3.733 3.733 0 01-.03-.256c-.042-1.246-.113-2.587-.298-3.772-.077-.501-.172-1.002-.22-1.484-.06-.662-.602-1.12-1.132-1.21-.524-.095-.976.149-1.179.632-.363.876-.423 1.811-.446 2.729 0 0-.042 1.126-.078 1.514-.071.804-.024 1.752.226 2.544zm-19.765-10.804c-.107.125-.238.268-.381.429-.601.643-5.33 6.829-5.258 7.628.089 1.042.863 1.549 1.757 1.56h.023c.614-.059 3.651-4.105 4.05-4.671l.286-.37c.25-.345.601-.971.834-1.329l.131-.202c.268-.411 2.007-2.616 2.269-3.034.077-.119.172-.238.28-.363.285-.34.643-.757.428-1.287l-.006-.012c-.417-1.037-.952-1.472-1.596-1.317-.649.256-2.793 2.938-2.817 2.968zm23.964-67.787c.006.047.012.143.018.22.024 1.603.447 2.247 1.12 2.277l.429-.024c.553 0 .917-.334 1.066-1.985.017-.25.047-.542.089-.87.155-1.329-.054-3.396-.399-4.535-.203-.655-1.007-.506-1.757-.381-.184.03-.357.101-.5.209a.646.646 0 00-.143.143c-.334.5-.262 2.204-.161 2.693.012.06.018.12.024.179.06.697.131 1.388.214 2.074zm17.288 26.286c-.179-.578-.715-2.002-1.793-2.688-1.244-.786-2.858-1.597-4.121-1.746-1.364-.16-3.817.131-5.115.596-.715.257-1.209.74-1.614 1.174-.256.274-.447.864-.578 1.3l-.065.214c-.03.268.166.512.512.644.333.13.81.143 1.09-.132.678-.446 1.208-.69 1.828-.858.714-.184 2.769-.41 3.835-.184 1.876.399 3.585 1.662 3.978 2.21.107.37.453.596.887.596.06 0 .12-.006.179-.011.524-.072 1.036-.465.983-1.08l-.006-.035zm-27.633-6.404c-.369-.143-2.168-.543-3.115-.596-.613-.036-1.715.119-2.382.214-.399.06-.786.25-1.155.435a4.655 4.655 0 01-.703.31c-.464.161-.786.578-1.072.942l-.041.053c-.376.477-.376.918-.215 1.234.167.316.459.465 1.096.435l.304-.107c.458-.185.887-.358 1.387-.489l.375-.107c.471-.131 1.4-.268 1.864-.286.763-.03 2.353.184 3.056.512.607.364 1.083.668 1.572 1.061l.041.024c.167.071.328.107.477.107a.697.697 0 00.554-.238c.315-.352.286-1.013-.066-1.633-.411-.745-1.536-1.698-1.977-1.871zm36.353 24.358c1.346 0 .952-2.878 1.322-3.85.012-.03.095-.697.131-.894.077-.41-.072-1.4-1.376-1.275-1.078.101-1.125 2.074-1.274 3.17a7.935 7.935 0 01-.125 1.21c-.185.924.541 1.627 1.322 1.639z" fill="#001F34"/><path d="M173.251 42.624c-.958-2.276-3.096-3.134-5.377-3.587-.518-.113-.655-.245-1.066-.465a5.299 5.299 0 01-.554-1.418 11.745 11.745 0 00-.208-1.127c-.114-.762-.203-1.525-.483-2.288-.024-.054-.048-.22-.077-.268-.06-.25-.107-.358-.143-.525-.179-.876-.322-1.573-.584-1.918-1.435-3.701-3.21-6.645-5.27-8.749l-.489-.542c-1.387-1.544-2.816-3.147-4.424-4.255-2.097-1.448-4.455-2.229-6.736-2.986l-.309-.101a27.64 27.64 0 00-11.131-1.293c-.441.036-.875.06-1.316.077-.905.042-1.834.09-2.751.286-2.275.495-4.556 1.162-6.39 1.997-.31.143-.626.28-.935.417-1.704.757-3.311 1.847-4.86 3.015-.965.727-2.013 1.472-2.9 2.426-.31.334-.613.661-.911.971-2.799 2.896-3.031 4.29-4.264 6.93-.417.865-.709 1.532-.78 2.504-.006.298-.006.375.017.673l.096.441c.012.197.28.47.417.608.798.584 1.316.16 1.697-.596.518-1.025.792-2.676 1.191-3.307 1.477-3.469 2.793-4.959 5.253-7.009 2.292-1.913 4.823-3.706 7.527-4.85 2.388-1.013 4.687-1.52 6.735-1.764 2.865-.34 5.89-.024 8.749.202 2.965.239 6.449 1.728 9.802 4.196 1.185.87 2.215 1.853 3.317 2.896 2.043 1.943 3.621 4.13 4.973 6.895.881 1.805 1.733 3.778 2.096 6.096.131.81.459 2.092.548 2.694.369 1.847 1.227 2.121 2.656 2.461.643.346 2.144.137 3.162.99 3.103 2.592 1.287 7.097-.548 8.372-1.28.888-2.578 1.311-4.222 1.037-1.006-.167-1.84-.435-2.418.828-.476 1.216.56 1.568 2.001 1.764 1.65.227 2.049.263 3.693-.178 2.191-.501 4.228-2.307 5.175-4.202 1.173-2.074 1.125-5.208.041-7.348z" fill="#001F34"/><path d="M139.132 59.457c-1.37 1.448-3.401 1.538-4.258 1.413-1.382-.21-3.365-2.366-4.068-3.654.322-.34.87-1 .864-1 1.137-1.026 2.519-1.95 3.787-2.337l1.692-.512c1.036-.316 2.924.065 3.984.024.262-.024.959.017 1.256.113-.792 1.555-1.828 4.16-3.257 5.953zm14.513-20.363l-.125-.125c-2.043-2.032-4.687-2.843-7.712-2.116l-.054.018c-.601.298-.875.966-.923 1.502-.018.25.173.459.31.632.286.357.822.399 1.262.423-.119.19-.339.459-.458.608-.102.125-.197.238-.256.316-1.811 2.27-3.943 3.647-6.956 4.707-.935.507-1.751.686-2.799.722-.226.011-1.108.017-1.346.03-.214.023-.56-.096-.774-.078-3.371-.179-5.723-.846-7.879-4.04-.357-.525-.375-.471-.661-1.246-.179-.483-1.024-1.907-.947-1.955.28-.143 1.507-.322 1.596-.506.203-.43-.161-1.168-.649-1.383-.256-.113-1.34-.155-1.602-.083-1.632.274-3.668 1.37-4.377 2.955-.346.674-.703 1.455-.393 2.211.303.936 1.649 1.347 2.144.358.238-.745.869-1.496 1.483-1.996.184.429.172.93.357 1.364.506 1.806 1.649 6.937 1.757 7.062.166.507.345 1.049.524 1.621.679 2.122 1.334 4.41 2.358 6.466 1.358 2.813 3.621 6.543 7.283 7.014.149.018.31-.012.453.042 1.328.518 4.657-.59 5.616-2.074.982-1.52 1.435-2.145 2.221-3.66l.089-.172c1.805-3.367 3.121-6.847 4.52-10.333.453-1.133.9-2.39 1.376-3.546l.155-.495c.333-1.06.482-1.847.864-3.283.381.202.131-.257 1.536.876.744.613 1.179 1.114 1.626 1.221.756.191.994-.167 1.31-.655.048-.078.363-1.186-.929-2.402z" fill="#001F34"/><path d="M162.698 56.315c-.006-.268-.095-.566-.273-.709-.947-.757-1.805-.101-2.418.46 0 0-.203.291-.286.404-.232.46-1.019 1.931-1.358 2.336-.22.257-.441.477-.679.71-.208.202-.53.667-.738.905-.524.584-1.138 1.312-1.71 1.812-.655.715-1.393 1.281-2.28 1.949l-.125.09c-.465.452-1.001.81-1.686 1.25-1.411.9-2.721 1.556-4.008 2.015-.691.244-1.399.411-2.15.59a35.55 35.55 0 00-1.072.262c-2.334.608-4.817 1.144-7.164.906-.506-.03-.994-.03-1.465-.036-.816-.006-1.584-.012-2.31-.137-1.62-.28-3.044-.799-4.425-1.3-.381-.136-.756-.273-1.12-.398l-.565-.191c-1.549-.525-3.014-1.025-4.497-2.062-.631-.441-1.935-1.103-2.727-1.925-.56-.578-1.316-1.233-1.852-1.937-.191-.244-.381-.5-.59-.762-1.441-1.848-2.876-3.23-4.038-6.27-.559-1.466-1.441-3.158-1.637-4.642-.167-.506-.352-1.46-.465-1.984-.095-.424-.19-.829-.226-1.228v-.107a50.522 50.522 0 01-.012-.954v-.578c.012-.155.036-.31.048-.465.017-.143.041-.292.053-.435.012-.083.012-.16.012-.244 0-.048 0-.078.006-.101.006-.09.006-.191.012-.298.066-.394.179-.787.095-1.186-.077-.382-.25-.697-.601-.894-.298-.167-.649-.143-.959.042-.292.172-.441.31-.47.65-.006.1-.084.297-.084.392-.03.09-.059.18-.083.269-.012.041-.084.292-.018.107-.089.25-.143.47-.185.733l-.143.924a6.714 6.714 0 00-1.018-.167c-.995-.15-3.198-1.58-3.49-3.361-.268-1.49-.327-3.516.864-4.607.887-.858 1.483-1.591 2.739-1.788.494-.137 1.287-.244 1.733-.494.477-.268.179-1.52-.25-1.734-1.846-.751-3.764.536-5.264 1.62-2.514 1.746-3.3 5.239-2.228 8.057.858 2.033 2.597 4.375 4.723 4.792.643.19 1.125.262 1.786.506.399 1.15.733 3.093.757 3.552.476 2.616 1.697 4.672 2.709 6.62 1.019 1.968 1.888 3.29 3.413 5.251 1.31 1.675 3.382 3.528 5.175 4.75 2.394 1.638 4.639 2.723 7.498 3.623a44.26 44.26 0 007.009 1.62c1.268.186 2.591.245 3.966.18 1.924-.096 3.966-.447 6.164-1.055 2.989-.823 5.64-1.92 7.879-3.254 2.096-1.251 4.151-3.158 6.092-5.655 1.066-1.12 2.18-3.081 3.067-4.315.083-.131.173-.262.262-.393.101-.143.197-.292.292-.435l.024-.048c.083-.238.172-.483.256-.721-.018 0 .041-.346.035-.507zm49.313-5.928c-.267-.292-.899-1.275-1.387-2.02l.071-.107c1.442-2.884 2.138-4.958 2.138-6.323v-2.21l-.327-2.027c-1.519-6.132-5.836-9.243-12.834-9.243l-2.793.024a7.843 7.843 0 00-3.698.947c-1.596.876-3.091 2.51-3.937 3.612-.738.96-2.417 4.052-2.417 9.225 0 7.914 4.52 12.449 13.435 13.48l.053.006c2.156 0 4.395-.858 6.67-2.55a4.582 4.582 0 001.007-1.056c.994 1.013 1.363 1.794 2.626 2.873l.923.876c.369.256.179.357.721.292.857-.108 1.536-.727 1.739-1.615.25-1.728-.941-3.033-1.99-4.184zm-9.683 1.3a5.737 5.737 0 01-1.852.405c-7.009-.864-10.005-3.802-10.005-9.827 0-1.204.036-2.187.09-2.98a6.554 6.554 0 011.661-3.933c.477-.775 1.102-1.46 1.882-2.074a5.596 5.596 0 013.454-1.168h2.108c5.36 0 8.129 1.907 9.255 6.329l.256 1.55v1.954c0 .16-.06 1.031-1.15 3.415a10.221 10.221 0 00-.899-.703c-.327-.227-.988-.525-1.911.005-.394.227-1.34 1.043-1.323 2.384 0 .125.024.274.084.43.089.238.262.494.589.72.072.06.328.358.53.602.078.096.209.25.358.435-.786 1.09-1.858 1.967-3.127 2.456z" fill="#001F34"/></svg>