<?xml version="1.0" encoding="UTF-8"?>
<svg id="a" xmlns="http://www.w3.org/2000/svg" viewBox="0 0 64 64"><defs><style>.cls-1{fill:#8a8ed1}.cls-2{fill:#321d71}.cls-3{fill:#bec7f6}.cls-4{fill:#fff}</style></defs><path class="cls-2" d="M32,58.54c14.66,0,26.54-11.88,26.54-26.54S46.66,5.46,32,5.46,5.46,17.34,5.46,32s11.88,26.54,26.54,26.54Z"/><path class="cls-4" d="M41.86,52.47c-2.94,1.42-6.35,2.27-9.86,2.27s-6.92-.85-9.86-2.27v-.09c0-5.4,4.45-9.86,9.86-9.86s9.86,4.45,9.86,9.86v.09Z"/><path class="cls-4" d="M32,38.63c3.66,0,6.63-2.97,6.63-6.63s-2.97-6.63-6.63-6.63-6.63,2.97-6.63,6.63,2.97,6.63,6.63,6.63Z"/><path class="cls-3" d="M45.46,50.29c-.66-4.36-3.32-8.06-7.11-10.05,2.46-1.9,4.08-4.93,4.08-8.25,0-5.78-4.64-10.42-10.42-10.42s-10.42,4.64-10.42,10.42c0,3.32,1.61,6.35,4.08,8.25-3.7,1.99-6.44,5.69-7.11,10.05-5.69-4.17-9.29-10.8-9.29-18.29,0-12.51,10.24-22.75,22.75-22.75s22.75,10.24,22.75,22.75c0,7.49-3.6,14.12-9.29,18.29Z"/><path class="cls-4" d="M41.29,15.98c-1.14-.66-2.56-.28-3.22.85-.66,1.14-.28,2.56.85,3.22.38.19.76.28,1.14.28.85,0,1.61-.38,2.09-1.14.57-1.14.19-2.56-.85-3.22Z"/><path class="cls-4" d="M15.89,34.37c1.33,0,2.37-1.04,2.37-2.37s-1.04-2.37-2.37-2.37-2.37,1.04-2.37,2.37,1.04,2.37,2.37,2.37Z"/><path class="cls-4" d="M45.93,26.31c.38,0,.85-.09,1.14-.28,1.14-.66,1.52-2.09.85-3.22-.66-1.14-2.09-1.52-3.22-.85-1.14.66-1.52,2.08-.85,3.22.47.66,1.33,1.14,2.09,1.14Z"/><path class="cls-4" d="M16.84,26.03c.38.19.76.28,1.14.28.85,0,1.61-.47,2.08-1.23.66-1.14.28-2.56-.85-3.22-1.14-.66-2.56-.28-3.22.85s-.28,2.65.85,3.32Z"/><path class="cls-4" d="M47.16,37.97c-1.14-.66-2.56-.28-3.22.85-.66,1.14-.28,2.56.85,3.22.38.19.76.28,1.14.28.85,0,1.61-.38,2.09-1.23.66-1.04.28-2.46-.85-3.13Z"/><path class="cls-4" d="M48.11,29.63c-1.33,0-2.37,1.04-2.37,2.37s1.04,2.37,2.37,2.37,2.37-1.04,2.37-2.37-1.04-2.37-2.37-2.37Z"/><path class="cls-4" d="M32,13.52h-.09c-1.33,0-2.37,1.04-2.37,2.37s1.04,2.37,2.37,2.37,2.37-1.04,2.37-2.37c.09-1.33-.95-2.37-2.27-2.37Z"/><path class="cls-4" d="M22.71,15.98c-1.14.66-1.52,2.09-.85,3.22.47.76,1.23,1.14,2.09,1.14.38,0,.85-.09,1.23-.28,1.14-.66,1.52-2.09.85-3.22-.76-1.14-2.18-1.52-3.32-.85Z"/><path class="cls-4" d="M16.84,38.07c-1.14.66-1.52,2.09-.85,3.22.47.76,1.23,1.14,2.08,1.14.38,0,.85-.09,1.23-.28,1.14-.66,1.52-2.08.85-3.22-.66-1.14-2.18-1.52-3.32-.85Z"/></svg>
