<?xml version="1.0" encoding="UTF-8"?><svg id="a" xmlns="http://www.w3.org/2000/svg" viewBox="0 0 64 64"><defs><style>.b{fill:#fff}.c{fill:#8a033e}.d{fill:#ff538a}</style></defs><path class="c" d="M48.43,13.83c-6.38-9.05-18.76-11.24-27.81-4.86-9.05,6.29-11.33,18.76-4.95,27.81.1.1.1.19.19.29l14.67,20.86c.38.48.95.76,1.52.76s1.24-.29,1.52-.76l14.67-20.86c.1-.1.1-.19.1-.19,2.38-3.33,3.62-7.33,3.62-11.43.1-4.19-1.14-8.19-3.52-11.62Z"/><path class="d" d="M45,35.07l-12.95,18.38-12.95-18.28c-.1-.1-.1-.19-.19-.29-4.09-5.71-4.09-13.33,0-19.05,5.24-7.24,15.33-8.86,22.57-3.62,7.24,5.24,8.86,15.33,3.62,22.57,0,.19-.1.19-.1.29Z"/><path class="c" d="M32.52,19.64l-.48.57-.48-.57c-.19-.29-.48-.48-.67-.67-2.67-2.29-6.76-2-9.05.67-2.29,2.67-2,6.76.67,9.05l8.19,8.19c.38.38.86.57,1.33.57s.95-.19,1.33-.48l8.19-8.19h0c2.48-2.48,2.48-6.57,0-9.05-2.48-2.57-6.48-2.57-9.05-.1Z"/><path class="b" d="M38.9,26.02l-6.86,6.86-6.86-6.86c-.48-.48-.76-1.14-.76-1.81,0-1.43,1.14-2.57,2.57-2.57.67,0,1.24.29,1.71.76l1.9,1.9h0c.76.76,1.9.76,2.67,0l1.9-1.9c1.05-1.05,2.67-1.05,3.62,0h0c1.14.95,1.14,2.57.1,3.62Z"/></svg>
