<svg xmlns="http://www.w3.org/2000/svg" viewBox="0 0 800 400">
  <defs>
    <linearGradient id="bg4" x1="0%" y1="0%" x2="100%" y2="100%">
      <stop offset="0%" style="stop-color:#032D60"/>
      <stop offset="100%" style="stop-color:#D97706"/>
    </linearGradient>
  </defs>
  <rect width="800" height="400" fill="url(#bg4)" rx="16"/>
  <g opacity="0.06" stroke="white" stroke-width="0.5">
    <line x1="0" y1="50" x2="800" y2="50"/><line x1="0" y1="100" x2="800" y2="100"/>
    <line x1="0" y1="150" x2="800" y2="150"/><line x1="0" y1="200" x2="800" y2="200"/>
    <line x1="0" y1="250" x2="800" y2="250"/><line x1="0" y1="300" x2="800" y2="300"/>
  </g>
  <!-- Chart bars -->
  <rect x="250" y="180" width="50" height="60" rx="6" fill="white" opacity="0.15"/>
  <rect x="320" y="140" width="50" height="100" rx="6" fill="white" opacity="0.2"/>
  <rect x="390" y="100" width="50" height="140" rx="6" fill="#F59E0B" opacity="0.6"/>
  <rect x="460" y="70" width="50" height="170" rx="6" fill="#F59E0B" opacity="0.8"/>
  <!-- Arrow up -->
  <polygon points="540,90 555,130 545,130 545,170 535,170 535,130 525,130" fill="#22C55E" opacity="0.8"/>
  <!-- Text -->
  <text x="400" y="295" text-anchor="middle" fill="white" font-family="Inter,sans-serif" font-size="24" font-weight="800">Measuring the ROI</text>
  <text x="400" y="330" text-anchor="middle" fill="#F59E0B" font-family="Inter,sans-serif" font-size="22" font-weight="800">of Agentforce</text>
  <text x="400" y="365" text-anchor="middle" fill="rgba(186,220,255,0.6)" font-family="Inter,sans-serif" font-size="14">What Our Clients Actually See</text>
</svg>
