<svg xmlns="http://www.w3.org/2000/svg" viewBox="0 0 800 400">
  <defs>
    <linearGradient id="bg3" x1="0%" y1="0%" x2="100%" y2="100%">
      <stop offset="0%" style="stop-color:#032D60"/>
      <stop offset="100%" style="stop-color:#059669"/>
    </linearGradient>
  </defs>
  <rect width="800" height="400" fill="url(#bg3)" rx="16"/>
  <g opacity="0.06" stroke="white" stroke-width="0.5">
    <line x1="0" y1="50" x2="800" y2="50"/><line x1="0" y1="100" x2="800" y2="100"/>
    <line x1="0" y1="150" x2="800" y2="150"/><line x1="0" y1="200" x2="800" y2="200"/>
    <line x1="0" y1="250" x2="800" y2="250"/><line x1="0" y1="300" x2="800" y2="300"/>
  </g>
  <!-- Checklist -->
  <rect x="280" y="60" width="240" height="200" rx="14" fill="white" opacity="0.12"/>
  <g transform="translate(305,85)">
    <rect width="18" height="18" rx="4" fill="#22C55E" opacity="0.9"/><text x="5" y="14" fill="white" font-size="13" font-weight="800">&#x2713;</text>
    <rect x="30" y="4" width="140" height="8" rx="4" fill="white" opacity="0.2"/>
  </g>
  <g transform="translate(305,115)">
    <rect width="18" height="18" rx="4" fill="#22C55E" opacity="0.9"/><text x="5" y="14" fill="white" font-size="13" font-weight="800">&#x2713;</text>
    <rect x="30" y="4" width="120" height="8" rx="4" fill="white" opacity="0.2"/>
  </g>
  <g transform="translate(305,145)">
    <rect width="18" height="18" rx="4" fill="#22C55E" opacity="0.9"/><text x="5" y="14" fill="white" font-size="13" font-weight="800">&#x2713;</text>
    <rect x="30" y="4" width="160" height="8" rx="4" fill="white" opacity="0.2"/>
  </g>
  <g transform="translate(305,175)">
    <rect width="18" height="18" rx="4" fill="white" opacity="0.15" stroke="white" stroke-opacity="0.2"/>
    <rect x="30" y="4" width="100" height="8" rx="4" fill="white" opacity="0.1"/>
  </g>
  <g transform="translate(305,205)">
    <rect width="18" height="18" rx="4" fill="white" opacity="0.15" stroke="white" stroke-opacity="0.2"/>
    <rect x="30" y="4" width="130" height="8" rx="4" fill="white" opacity="0.1"/>
  </g>
  <!-- Text -->
  <text x="400" y="310" text-anchor="middle" fill="white" font-family="Inter,sans-serif" font-size="24" font-weight="800">10-Point Checklist</text>
  <text x="400" y="345" text-anchor="middle" fill="#F59E0B" font-family="Inter,sans-serif" font-size="22" font-weight="800">Successful Implementation</text>
</svg>
