<svg xmlns="http://www.w3.org/2000/svg" viewBox="0 0 800 400">
  <defs>
    <linearGradient id="bg7" x1="0%" y1="0%" x2="100%" y2="100%">
      <stop offset="0%" style="stop-color:#032D60"/>
      <stop offset="100%" style="stop-color:#E11D48"/>
    </linearGradient>
  </defs>
  <rect width="800" height="400" fill="url(#bg7)" rx="16"/>
  <g opacity="0.06" stroke="white" stroke-width="0.5">
    <line x1="0" y1="50" x2="800" y2="50"/><line x1="0" y1="100" x2="800" y2="100"/>
    <line x1="0" y1="150" x2="800" y2="150"/><line x1="0" y1="200" x2="800" y2="200"/>
    <line x1="0" y1="250" x2="800" y2="250"/><line x1="0" y1="300" x2="800" y2="300"/>
  </g>
  <!-- Lightning bolt -->
  <polygon points="380,70 420,70 405,145 445,145 370,250 390,170 355,170" fill="#F59E0B" opacity="0.7"/>
  <!-- Sparkles -->
  <circle cx="300" cy="100" r="4" fill="white" opacity="0.4"/>
  <circle cx="500" cy="90" r="3" fill="#F59E0B" opacity="0.5"/>
  <circle cx="280" cy="200" r="3" fill="#38BDF8" opacity="0.4"/>
  <circle cx="530" cy="180" r="4" fill="white" opacity="0.3"/>
  <circle cx="320" cy="250" r="2" fill="#F59E0B" opacity="0.5"/>
  <circle cx="490" cy="240" r="3" fill="#38BDF8" opacity="0.4"/>
  <!-- Text -->
  <text x="400" y="310" text-anchor="middle" fill="white" font-family="Inter,sans-serif" font-size="22" font-weight="800">Top Agentforce Features</text>
  <text x="400" y="345" text-anchor="middle" fill="#F59E0B" font-family="Inter,sans-serif" font-size="26" font-weight="800">Spring '25 Release</text>
</svg>
